<svg xmlns="http://www.w3.org/2000/svg" xmlns:xlink="http://www.w3.org/1999/xlink" fill="none" version="1.1" width="64" height="68.96804809570312" viewBox="0 0 64 68.96804809570312"><g style="mix-blend-mode:passthrough"><g><path d="M19.454995531463624,18.844834078833006C19.454995531463624,18.844834078833006,-2.036504468536377,22.79427017883301,1.495126531463623,46.57573017883301C5.026755531463623,70.35713017883302,34.34149553146362,69.130630178833,42.937295531463626,66.503830178833C51.53299553146363,63.87333017883301,68.72459553146362,54.685130178833006,60.89709553146362,32.846930178833006C56.754095531463626,21.589870178833007,47.08439553146362,18.56775017883301,42.478795531463625,18.844834078833006C37.87739553146362,19.11822617883301,19.454995531463624,18.844834078833006,19.454995531463624,18.844834078833006C19.454995531463624,18.844834078833006,19.454995531463624,18.844834078833006,19.454995531463624,18.844834078833006Z" fill="#ACACEF" fill-opacity="1"/></g><g><path d="M22.82684552822113,58.95955424804688C17.19364552822113,56.125954248046874,13.23464552822113,51.26395424804687,11.828445528221131,45.67795424804687C9.137385528221131,34.98605424804688,13.43544552822113,23.795384248046876,13.43544552822113,23.795384248046876C13.43544552822113,23.795384248046876,15.62844552822113,20.119354248046875,15.62844552822113,20.119354248046875C9.50988552822113,22.602054248046876,-1.0699744717788695,29.440614248046877,1.5038305282211304,46.57925424804688C5.0820755282211305,70.36445424804688,34.78344552822113,69.13425424804687,43.49264552822113,66.50745424804688C47.20904552822113,65.38425424804687,52.51564552822113,63.064154248046876,56.75524552822113,59.077854248046876C43.04074552822113,65.52475424804688,30.59854552822113,62.86835424804688,22.82684552822113,58.95955424804688C22.82684552822113,58.95955424804688,22.82684552822113,58.95955424804688,22.82684552822113,58.95955424804688Z" fill="#9E9AEA" fill-opacity="1"/></g><g><path d="M31.8222,68.96805909729004C25.7296,68.96805909729004,18.5634,67.75815909729005,12.5162,63.93095909729004C5.65849,59.59135909729004,1.58169,52.77735909729004,0.39698,43.66945909729004C-1.49127,29.15495909729004,3.71676,20.97135909729004,8.41885,16.66111909729004C13.5199,11.985399097290038,19.0242,10.788116497290039,19.2546,10.737701397290039C19.3409,10.72090149729004,19.4315,10.708282497290039,19.5219,10.71249389729004C19.7071,10.716705297290039,37.8653,11.019165097290038,42.3493,10.716705297290039C47.2612,10.38061509729004,56.2333,13.817049097290038,60.8778,24.64725909729004C61.1535,25.28585909729004,60.8655,26.02935909729004,60.2443,26.306659097290037C59.619,26.58815909729004,58.8909,26.294059097290038,58.6194,25.65975909729004C54.485,16.018359097290038,46.7223,12.95162909729004,42.5139,13.233049097290039C38.0957,13.535509097290038,21.5171,13.270859097290039,19.6289,13.237259097290039C18.835,13.434709097290039,14.1946,14.71180909729004,9.98209,18.614549097290038C3.84844,24.29435909729004,1.4419,32.616559097290036,2.83646,43.34595909729004C3.91837,51.66815909729004,7.60842,57.87305909729004,13.8079,61.79675909729004C23.8661,68.16135909729005,37.7171,66.64895909729003,42.4891,64.98115909729003C46.496,63.58225909729004,66.1927,55.39445909729004,60.4787,31.46535909729004C60.3183,30.78905909729004,60.7214,30.10845909729004,61.3838,29.940459097290038C62.0502,29.77235909729004,62.7125,30.19245909729004,62.8771,30.86465909729004C69.0971,56.91935909729004,47.6479,65.83815909729003,43.2873,67.36315909729004C40.9218,68.18655909729003,36.7176,68.96795909729005,31.8222,68.96795909729005C31.8222,68.96795909729005,31.8222,68.96805909729004,31.8222,68.96805909729004Z" fill="#000F04" fill-opacity="1"/></g><g><path d="M25.20936224899292,10.821186542053223C23.03696224899292,8.781826542053222,14.23670224899292,1.5775965420532225,8.00411224899292,12.143826542053223C7.38713824899292,13.189356542053222,7.65683714899292,14.534176542053222,8.64696424899292,15.239796542053222C10.88582224899292,16.839516542053225,13.87836224899292,17.231116542053222,15.418972248992919,17.323516542053223C15.82168224899292,17.349316542053224,16.04703224899292,17.796416542053223,15.82537224899292,18.128916542053222C14.84632224899292,19.617816542053223,13.26137224899292,23.109116542053222,15.98792224899292,27.557216542053222C16.49407224899292,28.384816542053223,17.46203224899292,28.82441654205322,18.41526224899292,28.643416542053224C24.40396224899292,27.505516542053222,26.15516224899292,25.643516542053224,27.57756224899292,22.942816542053222C27.78076224899292,22.554916542053224,28.31646224899292,22.51051654205322,28.59356224899292,22.846716542053223C30.98016224899292,25.743216542053222,33.60696224899292,27.85651654205322,40.14256224899292,26.341716542053224C41.07726224899292,26.123816542053223,41.79396224899292,25.351616542053222,41.92326224899292,24.40211654205322C42.46266224899292,20.452716542053224,41.39126224899292,17.27541654205322,39.48856224899292,15.657316542053223C39.13756224899292,15.358026542053222,39.296462248992924,14.792776542053222,39.74716224899292,14.693016542053222C41.38756224899292,14.330956542053222,42.79886224899292,13.488606542053223,43.74836224899292,12.498496542053223C44.57966224899292,11.630286542053224,44.57596224899292,10.263326542053223,43.77786224899292,9.365566542053223C40.78906224899292,6.003562542053222,33.21536224899292,1.7475465420532226,26.13296224899292,10.754696542053223C25.90766224899292,11.046566542053224,25.47906224899292,11.072406542053223,25.20936224899292,10.821186542053223C25.20936224899292,10.821186542053223,25.20936224899292,10.821186542053223,25.20936224899292,10.821186542053223Z" fill="#BFE5BD" fill-opacity="1"/></g><g><path d="M39.74715120620728,14.700407021484375C29.923551206207275,13.943037021484376,31.246151206207276,8.874187021484374,33.787951206207275,5.526947021484375C33.769551206207275,5.530639651484375,33.75105120620728,5.534332271484375,33.728851206207274,5.538024921484375C32.48385120620728,5.848358021484375,31.427151206207274,6.276932021484375,30.533151206207275,6.764607021484375C29.465451206207277,7.388977021484375,28.382951206207274,8.249787021484375,27.307851206207275,9.398777021484374C26.350951206207274,10.569927021484375,26.025851206207275,11.515717021484374,26.025851206207275,11.515717021484374C26.025851206207275,11.515717021484374,25.914951206207274,11.297747021484376,25.685951206207275,10.994797021484375C25.519651206207275,11.005887021484375,25.346051206207274,10.950467021484375,25.213051206207275,10.824857021484375C24.638951206207274,10.285247021484375,24.031851206207275,9.781827021484375,23.395351206207273,9.317507021484374C23.070251206207274,9.202977021484376,22.715551206207273,9.117997021484374,22.323951206207276,9.077367021484374C14.868441206207276,15.675747021484375,10.176421206207275,14.238567021484375,7.841522206207276,12.487367021484374C7.453613206207275,13.470107021484374,7.760253606207275,14.615407021484375,8.646926206207276,15.247157021484375C10.885801206207276,16.846847021484376,13.878321206207275,17.238447021484376,15.418941206207275,17.330847021484374C15.821641206207275,17.356747021484374,16.047001206207277,17.803747021484376,15.825331206207276,18.136247021484373C15.274851206207275,18.971247021484373,14.535951206207276,20.434247021484374,14.473141206207275,22.344347021484374C18.400351206207276,16.322247021484372,23.687251206207275,15.830947021484375,24.592351206207276,17.031647021484375C27.954351206207274,21.897247021484375,19.205851206207278,28.488247021484376,19.198451206207274,28.495647021484373C24.562851206207274,27.346647021484376,26.221651206207277,25.532647021484376,27.581251206207277,22.953947021484375C27.784451206207276,22.565947021484376,28.320151206207274,22.521647021484377,28.597251206207275,22.857847021484375C30.189551206207277,24.786347021484374,31.889051206207274,26.367647021484373,34.774451206207274,26.759247021484374C35.19565120620727,26.774047021484375,35.583551206207275,26.803547021484373,35.91605120620727,26.851647021484375C31.999851206207275,25.750647021484376,28.161251206207275,20.951447021484377,29.258551206207276,17.655947021484373C30.355851206207277,14.360487021484374,40.035351206207274,16.207747021484373,40.035351206207274,16.207747021484373C39.86175120620727,16.015647021484376,39.68065120620727,15.830947021484375,39.488551206207276,15.668347021484376C39.13395120620727,15.365407021484375,39.29645120620728,14.796447021484376,39.74715120620728,14.700397021484376C39.74715120620728,14.700397021484376,39.74715120620728,14.700407021484375,39.74715120620728,14.700407021484375Z" fill="#A2DD9E" fill-opacity="1"/></g><g><path d="M17.99406452636719,29.799756160736084C16.811764526367188,29.799756160736084,15.677614526367188,29.179156160736085,15.042164526367188,28.144656160736083C14.495374526367186,27.254256160736084,14.074204526367186,26.341756160736082,13.797104526367187,25.432856160736083C13.682584526367187,25.063456160736084,13.590224526367187,24.686656160736085,13.520024526367187,24.313456160736084C13.407794526367187,23.711556160736084,13.804774526367186,23.132656160736083,14.406704526367188,23.020356160736085C15.008624526367187,22.908156160736084,15.587554526367187,23.305156160736082,15.699784526367187,23.907056160736083C15.755204526367187,24.195256160736083,15.825394526367187,24.490756160736083,15.914064526367188,24.778956160736083C16.139424526367186,25.510456160736084,16.483014526367185,26.253056160736083,16.933764526367188,26.988256160736086C17.20346452636719,27.427956160736084,17.716964526367185,27.660656160736085,18.208364526367188,27.564656160736085C24.064164526367186,26.452556160736084,25.423664526367187,24.660756160736085,26.598564526367188,22.436656160736085C26.864564526367186,21.928356160736083,27.368664526367187,21.588056160736084,27.93966452636719,21.531556160736084C28.515564526367186,21.471756160736085,29.08306452636719,21.704856160736085,29.450664526367188,22.152156160736084C31.54916452636719,24.697656160736084,33.784364526367185,26.689056160736083,39.89496452636719,25.270356160736085C40.38636452636719,25.155856160736082,40.763164526367184,24.749456160736084,40.82966452636719,24.261756160736084C41.284164526367185,20.944056160736086,40.497164526367186,17.973756160736084,38.77556452636719,16.510656160736083C38.296764526367184,16.104156160736082,38.090464526367185,15.460956160736083,38.24356452636719,14.851856160736084C38.39546452636719,14.230836160736084,38.889264526367185,13.751436160736084,39.514464526367185,13.617876160736085C40.833364526367184,13.326006160736084,42.08586452636719,12.642516160736085,42.95406452636719,11.737366160736084C43.375164526367186,11.297726160736083,43.375164526367186,10.580996160736085,42.95406452636719,10.108096160736084C41.33586452636719,8.290406160736083,38.44676452636719,6.384046160736084,35.20296452636718,6.480106160736084C32.28796452636719,6.568766160736084,29.531864526367187,8.238676160736084,27.012264526367186,11.445496160736084C26.712764526367188,11.825256160736084,26.267964526367187,12.062366160736083,25.78566452636719,12.099426160736083C25.29916452636719,12.135696160736085,24.819664526367188,11.966916160736083,24.463064526367187,11.633926160736085C23.32516452636719,10.566226160736084,19.298164526367188,7.122956160736084,15.215724526367188,7.706666160736084C12.832774526367189,8.046566160736084,10.730604526367188,9.731266160736084,8.972034526367187,12.712706160736085C8.643214526367188,13.274276160736084,8.783614526367188,13.972536160736084,9.304534526367188,14.345656160736084C11.306944526367188,15.775456160736084,14.044574526367187,16.137556160736082,15.496504526367188,16.226156160736082C16.076534526367187,16.263156160736084,16.597464526367187,16.606756160736083,16.856064526367188,17.123956160736086C17.114664526367186,17.641156160736085,17.07776452636719,18.265556160736082,16.760064526367188,18.749556160736084C16.50140452636719,19.141156160736085,16.279734526367186,19.562356160736083,16.102404526367188,20.001956160736086C15.991984526367187,20.274556160736083,15.777634526367187,20.492156160736084,15.506604526367187,20.606456160736084C15.235594526367187,20.720856160736083,14.930224526367187,20.722656160736083,14.657854526367187,20.611556160736082C14.385204526367188,20.501156160736084,14.167704526367189,20.286756160736083,14.053324526367188,20.015756160736082C13.938964526367187,19.744756160736085,13.937144526367188,19.439356160736082,14.048264526367188,19.166956160736085C14.159104526367187,18.889956160736084,14.284714526367187,18.620256160736083,14.425114526367189,18.354256160736085C12.648054526367186,18.154756160736085,10.069294526367187,17.611656160736082,8.015154526367187,16.144856160736083C6.552139226367188,15.103056160736084,6.1457365263671875,13.141266160736084,7.061965526367188,11.582196160736084C9.178924526367187,7.9911461607360845,11.816784526367186,5.948086160736084,14.901654526367187,5.508456160736084C19.490264526367188,4.854522160736084,23.68346452636719,7.957896160736084,25.600864526367186,9.668456160736085C28.46416452636719,6.188236160736084,31.670964526367186,4.370544160736084,35.14006452636718,4.263397080736084C39.13746452636719,4.141479160736084,42.66576452636719,6.4431461607360845,44.61646452636719,8.633986160736084C45.802364526367185,9.967716160736085,45.77656452636719,12.003376160736085,44.56106452636719,13.270586160736084C43.593064526367186,14.279156160736084,42.329564526367186,15.062456160736083,40.93306452636719,15.524256160736083C42.75446452636719,17.596856160736085,43.53766452636719,20.888656160736083,43.035264526367186,24.560956160736083C42.843064526367186,25.957456160736083,41.78646452636719,27.110156160736086,40.40476452636719,27.431556160736083C33.540364526367185,29.020156160736082,30.525664526367187,26.773956160736084,28.216564526367186,24.110256160736085C26.60586452636719,26.836856160736083,24.348564526367188,28.650856160736083,18.622164526367186,29.740656160736084C18.411564526367187,29.781356160736085,18.200964526367187,29.799756160736084,17.99406452636719,29.799756160736084C17.99406452636719,29.799756160736084,17.99406452636719,29.799756160736084,17.99406452636719,29.799756160736084Z" fill="#000F04" fill-opacity="1"/></g><g><path d="M31.660569881591798,1.1083488464355469C31.660569881591798,1.1083488464355469,26.813400881591797,6.598358846435547,26.078202011591795,12.915948846435548C26.033859981591796,13.784148846435547,27.404529881591795,15.202848846435547,30.197559881591797,14.197948846435548C31.294849881591798,13.787848846435548,31.113819881591798,12.321148846435547,31.113819881591798,11.131448846435546C31.113819881591798,9.941878846435547,33.4930598815918,3.062708846435547,34.682659881591796,1.832484846435547C33.7220898815918,1.1083641052355468,31.660569881591798,1.1083641052355468,31.660569881591798,1.1083641052355468C31.660569881591798,1.1083641052355468,31.660569881591798,1.1083488464355469,31.660569881591798,1.1083488464355469Z" fill="#A2DD9E" fill-opacity="1"/></g><g><path d="M31.858017690429687,15.6535C30.709027690429686,15.6535,29.947947690429686,15.2545,29.523087690429687,14.9405C28.795303690429687,14.4011,28.388870090429688,13.6216,28.42582688042969,12.8568C28.42582688042969,12.8346,28.429519500429688,12.8088,28.433212130429688,12.7866C29.197982690429686,6.20307,34.078387690429686,0.609589,34.28529769042969,0.373138C34.49586769042969,0.133003,34.79877769042969,0,35.116527690429685,0C35.52290769042969,0,37.610307690429686,0.0443344,38.80730769042969,0.949486C39.06230769042969,1.1416,39.22110769042969,1.43346,39.24330769042969,1.7475C39.26540769042969,2.06153,39.154607690429685,2.37556,38.93290769042969,2.60461C37.990857690429685,3.57627,35.703967690429685,10.0933,35.674397690429686,11.1352C35.674397690429686,11.2719,35.67811769042969,11.416,35.67811769042969,11.5638C35.70026769042969,12.7719,35.733537690429685,14.6007,34.03773769042969,15.2361C33.199107690429685,15.5391,32.471267690429684,15.6536,31.857987690429688,15.6536C31.857987690429688,15.6536,31.858017690429687,15.6535,31.858017690429687,15.6535ZM30.646227690429686,12.9455C30.675797690429686,13.0083,30.771837690429688,13.1376,30.986097690429688,13.2521C31.29273769042969,13.4147,32.00208769042969,13.6142,33.273027690429686,13.1561C33.48728769042969,13.0748,33.47248769042969,12.1179,33.46143769042969,11.6044C33.45771769042969,11.4455,33.454057690429686,11.2867,33.454057690429686,11.1315C33.454057690429686,10.001,35.075947690429686,4.96907,36.47242769042969,2.36074C36.18797769042969,2.30532,35.88871769042969,2.26468,35.611647690429685,2.24252C34.55128769042969,3.56884,31.25211769042969,8.03179,30.646227690429686,12.9454C30.646227690429686,12.9454,30.646227690429686,12.9455,30.646227690429686,12.9455ZM46.55840769042969,51.3683C46.04770769042969,51.3688,45.60290769042969,51.0202,45.48100769042969,50.5243C45.35930769042969,50.0283,45.592107690429685,49.5133,46.04490769042969,49.2772C51.00660769042969,46.691,53.84030769042968,42.749,54.46830769042968,37.5657C54.54220769042969,36.9598,55.09270769042969,36.5238,55.70230769042969,36.5977C56.30820769042968,36.6716,56.744107690429686,37.2221,56.67030769042969,37.8317C56.17520769042969,41.9252,54.10630769042969,47.574,47.07190769042968,51.2427C46.905707690429686,51.3276,46.732107690429686,51.3683,46.55840769042969,51.3683C46.55840769042969,51.3683,46.55840769042969,51.3683,46.55840769042969,51.3683ZM55.48800769042968,33.5866C54.94490769042969,33.5866,54.47200769042969,33.1876,54.39440769042969,32.6372C54.39440769042969,32.6372,54.16540769042969,31.0559,54.16540769042969,31.0559C54.07760769042969,30.4499,54.49770769042969,29.8875,55.10380769042969,29.7998C55.709807690429685,29.712,56.27220769042969,30.1322,56.35990769042969,30.7382C56.35990769042969,30.7382,56.58890769042969,32.3194,56.58890769042969,32.3194C56.63510769042969,32.6385,56.54020769042969,32.9619,56.32870769042969,33.2052C56.11730769042968,33.4486,55.810407690429685,33.5878,55.48800769042968,33.5866C55.48800769042968,33.5866,55.48800769042968,33.5866,55.48800769042968,33.5866Z" fill="#000F04" fill-opacity="1"/></g></g></svg>