<svg xmlns="http://www.w3.org/2000/svg" xmlns:xlink="http://www.w3.org/1999/xlink" fill="none" version="1.1" width="128" height="130.37234497070312" viewBox="0 0 128 130.37234497070312"><g style="mix-blend-mode:passthrough"><g><path d="M119.89070497512817,42.28900082321167C119.78770497512818,42.08380082321167,119.79970497512818,41.83950082321167,119.92170497512818,41.64510082321167C122.14870497512817,38.11510082321167,124.32870497512818,32.762000823211665,123.58370497512817,25.93480082321167C122.44370497512817,17.26880082321167,121.39570497512817,12.17946082321167,121.03170497512818,10.51927082321167C120.95470497512818,10.176960823211669,120.62570497512817,9.95294082321167,120.27870497512818,10.00724082321167C120.27870497512818,10.00724082321167,107.15770497512817,11.90023082321167,107.15770497512817,11.90023082321167C107.14270497512817,11.90023082321167,107.13470497512817,11.90023082321167,107.11970497512817,11.90798082321167C106.72370497512817,11.93903082321167,100.12840497512818,12.50536082321167,95.25570497512817,16.06638082321167C95.04620497512818,16.22154082321167,94.77460497512817,16.244810823211672,94.54960497512818,16.12070082321167C91.56620497512817,14.51833082321167,88.45120497512818,13.173860823211669,85.23870497512817,12.10193082321167C84.37750497512818,11.81488082321167,83.91970497512817,10.88391082321167,84.24560497512817,10.03826082321167C84.24560497512817,10.03826082321167,84.34640497512818,9.76673082321167,84.34640497512818,9.76673082321167C84.90510497512817,8.315940823211669,83.83430497512818,6.764300823211698,82.28250497512818,6.764300823211698C82.28250497512818,6.764300823211698,51.021304975128174,6.764300823211698,51.021304975128174,6.764300823211698C49.438504975128176,6.764300823211698,48.36770497512818,8.37024082321167,48.98070497512818,9.82878082321167C49.33760497512817,10.68994082321167,48.879804975128174,11.65972082321167,47.987504975128175,11.946760823211669C44.682704975128175,13.01490082321167,41.478704975128174,14.37267082321167,38.412804975128175,16.004310823211668C38.187804975128174,16.12068082321167,37.92400497512817,16.097410823211668,37.722304975128175,15.95777082321167C32.87290497512817,12.50536082321167,26.417304975128175,11.95453082321167,26.021604975128174,11.923490823211669C26.006104975128174,11.923490823211669,25.998304975128175,11.923490823211669,25.982804975128175,11.91574082321167C25.982804975128175,11.91574082321167,12.862174975128173,10.02266082321167,12.862174975128173,10.02266082321167C12.516264975128173,9.97154082321167,12.188964975128174,10.19422082321167,12.109534975128174,10.534690823211669C11.744864975128174,12.19496082321167,10.697384975128173,17.28430082321167,9.556804975128173,25.95020082321167C8.835214975128174,32.54460082321167,10.852564975128175,37.765900823211666,12.994064975128174,41.30370082321167C13.110454975128174,41.49770082321167,13.125984975128173,41.73810082321167,13.017344975128175,41.93990082321167C8.962484975128174,49.97860082321167,6.789454975128174,58.83430082321167,6.662685135128174,67.83680082321166C6.460932975128173,81.04120082321167,10.643074975128174,93.36130082321166,17.859004975128173,103.40810082321167C17.936604975128176,103.51670082321166,17.97540497512817,103.64090082321167,17.983104975128175,103.76500082321166C17.983104975128175,103.76500082321166,18.836604975128175,126.38030082321167,18.836604975128175,126.38030082321167C18.88080497512817,127.53530082321167,19.829504975128174,128.45030082321168,20.98590497512817,128.45130082321168C20.98590497512817,128.45130082321168,25.074904975128174,128.45130082321168,25.074904975128174,128.45130082321168C25.889604975128172,128.45130082321168,26.642304975128173,127.98630082321166,27.006904975128172,127.25730082321166C27.006904975128172,127.25730082321166,31.064904975128172,119.30430082321168,31.064904975128172,119.30430082321168C31.243404975128175,118.94830082321167,35.068604975128174,119.51430082321167,35.40220497512817,119.72330082321167C44.04580497512817,125.02230082321167,54.13270497512817,128.18730082321167,64.91770497512817,128.44430082321168C76.91330497512817,128.73130082321165,88.11730497512818,125.46430082321167,97.58340497512818,119.63830082321167C97.91710497512817,119.42930082321168,98.35930497512817,119.55330082321167,98.53780497512817,119.91030082321167C98.53780497512817,119.91030082321167,102.18450497512818,127.26430082321167,102.18450497512818,127.26430082321167C102.54920497512818,128.00130082321166,103.29410497512818,128.45930082321166,104.11650497512818,128.45930082321166C104.11650497512818,128.45930082321166,112.04670497512818,128.45930082321166,112.04670497512818,128.45930082321166C113.20370497512818,128.46030082321167,114.15370497512818,127.54430082321167,114.19570497512818,126.38830082321167C114.19570497512818,126.38830082321167,115.06470497512818,103.47020082321167,115.06470497512818,103.47020082321167C115.07270497512818,103.34600082321167,115.11070497512817,103.22190082321167,115.18070497512818,103.11330082321167C122.03270497512817,93.39220082321167,126.07470497512817,81.54550082321167,126.07470497512817,68.75220082321167C126.07470497512817,59.24060082321167,123.83970497512817,50.26430082321167,119.89070497512817,42.28900082321167C119.89070497512817,42.28900082321167,119.89070497512817,42.28900082321167,119.89070497512817,42.28900082321167ZM64.90230497512817,99.13330082321167C52.37140497512817,99.13330082321167,39.73180497512817,90.35880082321167,39.73180497512817,77.82930082321167C39.73180497512817,65.29990082321167,50.974704975128176,51.63770082321167,63.505704975128175,51.63770082321167C76.03660497512817,51.63770082321167,87.87680497512818,63.54650082321167,87.87680497512818,76.07600082321167C87.87680497512818,88.60550082321167,77.43310497512817,99.13330082321167,64.90230497512817,99.13330082321167C64.90230497512817,99.13330082321167,64.90230497512817,99.13330082321167,64.90230497512817,99.13330082321167Z" fill="#FFA750" fill-opacity="1"/></g><g><path d="M111.204,130.372C111.204,130.372,103.001,130.372,103.001,130.372C101.272,130.372,99.7188,129.408,98.9536,127.855C98.9536,127.855,95.9541,121.81,95.9541,121.81C85.7924,127.679,74.238,130.625,62.4466,130.349C51.8794,130.097,41.4957,127.181,32.3059,121.894C32.3059,121.894,29.3523,127.855,29.3523,127.855C28.5871,129.408,27.0338,130.365,25.3044,130.365C25.3044,130.365,17.1017,130.365,17.1017,130.365C14.6608,130.365,12.679,128.452,12.5872,126.011C12.5872,126.011,11.7225,103.124,11.7225,103.124C3.8564,91.9905,-0.199093,78.9517,0.0075183,65.3851C0.152896,55.9351,2.31073,46.8676,6.42742,38.4123C4.33081,34.7012,2.22654,29.0158,3.00704,21.8767C4.19307,12.8858,5.27198,7.56774,5.68518,5.70064C6.02847,4.17745,7.48286,3.17234,9.02905,3.38977C9.02905,3.38977,22.5422,5.34101,22.5422,5.34101C23.5293,5.42517,29.7197,6.06794,34.8923,9.36588C37.7235,7.91968,40.6771,6.68007,43.6843,5.67003C43.3782,4.43808,43.6001,3.12197,44.3194,2.04306C45.1693,0.765186,46.603,-0.0019038,48.1377,0.0000035486C48.1377,0.0000035486,80.4437,0.0000035486,80.4437,0.0000035486C81.9511,0.0000035486,83.3667,0.742237,84.2237,1.98949C84.9991,3.11647,85.2293,4.53136,84.8512,5.84603C87.7436,6.84076,90.5901,8.06507,93.3371,9.48832C98.548,6.08324,104.868,5.42517,105.871,5.34101C105.871,5.34101,119.384,3.38977,119.384,3.38977C120.93,3.16788,122.399,4.18558,122.728,5.70064C123.141,7.56005,124.22,12.8551,125.406,21.8308C126.217,29.2149,123.983,35.0303,121.764,38.8103C125.903,47.4569,128,56.7233,128,66.3646C128,79.4722,124.059,92.0596,116.599,102.803C116.599,102.803,115.719,126.011,115.719,126.011C115.627,128.459,113.637,130.372,111.204,130.372C111.204,130.372,111.204,130.372,111.204,130.372ZM96.6274,116.561C96.9028,116.561,97.1783,116.599,97.4538,116.675C98.2572,116.905,98.9306,117.471,99.3055,118.221C99.3055,118.221,103.07,125.819,103.07,125.819C103.07,125.819,111.135,125.781,111.135,125.781C111.135,125.781,112.031,102.167,112.031,102.167C112.053,101.594,112.237,101.043,112.566,100.568C119.659,90.5137,123.409,78.6916,123.409,66.3721C123.409,57.144,121.343,48.2907,117.264,40.0573C116.798,39.1238,116.851,38.0373,117.41,37.1496C119.376,34.0277,121.572,28.9316,120.853,22.3892C119.927,15.3725,119.07,10.6742,118.558,8.15679C118.558,8.15679,106.491,9.9014,106.491,9.9014C106.452,9.90905,106.376,9.91671,106.338,9.91671C106.031,9.93966,99.7417,10.4753,95.2194,13.7809C94.2935,14.4543,93.0463,14.5461,92.0439,14.0028C89.0773,12.4075,85.9797,11.0687,82.7851,10.0009C81.7593,9.65706,80.917,8.91144,80.4513,7.93486C79.9922,6.96309,79.954,5.86887,80.3365,4.85883C80.3365,4.85883,80.4437,4.5757,80.4437,4.5757C80.4437,4.5757,48.1453,4.59101,48.1453,4.59101C48.5737,5.58576,48.5584,6.73352,48.0993,7.72063C47.636,8.72617,46.7731,9.49196,45.7196,9.83252C42.4335,10.8989,39.2461,12.2481,36.1931,13.865C35.1976,14.3946,33.9881,14.3146,33.0711,13.6585C28.5565,10.4447,22.3968,9.92435,22.1366,9.90905C22.083,9.9014,21.9836,9.89376,21.93,9.8861C21.93,9.8861,9.87069,8.14913,9.87069,8.14913C9.35801,10.6666,8.501,15.3801,7.57511,22.4275C7.01654,27.493,8.10311,32.3443,10.8119,36.7977C11.3475,37.6853,11.3934,38.7565,10.9266,39.6824C6.87115,47.7322,4.74394,56.4017,4.6062,65.4461C4.41491,78.1788,8.26379,90.4218,15.7397,100.836C16.084,101.31,16.2753,101.869,16.2982,102.458C16.2982,102.458,17.1782,125.766,17.1782,125.766C17.1782,125.766,25.3121,125.766,25.3121,125.766C25.3121,125.766,28.9774,118.297,28.9774,118.297C29.3446,117.548,30.018,116.989,30.8214,116.752C31.6249,116.522,32.4972,116.637,33.2165,117.081C42.0773,122.506,52.2237,125.505,62.569,125.75C74.062,126.018,85.3102,122.996,95.0663,116.989C95.5331,116.714,96.0764,116.56,96.6273,116.56C96.6273,116.56,96.6274,116.561,96.6274,116.561ZM30.7984,121.006C30.8061,121.006,30.8061,121.006,30.7984,121.006C30.8061,121.006,30.8061,121.006,30.7984,121.006C30.7984,121.006,30.7984,121.006,30.7984,121.006ZM12.0055,103.529C12.0055,103.529,12.0055,103.529,12.0055,103.529ZM121.373,38.0143C121.373,38.0143,121.373,38.022,121.373,38.0143C121.373,38.022,121.373,38.0143,121.373,38.0143C121.373,38.0143,121.373,38.0143,121.373,38.0143ZM94.2094,9.9627C94.2094,9.9627,94.2094,9.9627,94.2094,9.9627Z" fill="#333333" fill-opacity="1"/></g><g><path d="M49.438602447509766,79.4310997253418C49.438602447509766,89.0577997253418,57.24256244750977,96.8617997253418,66.86930244750977,96.8617997253418C76.49590244750976,96.8617997253418,84.29990244750977,89.0577997253418,84.29990244750977,79.4310997253418C84.29990244750977,69.8044597253418,76.49590244750976,62.0004997253418,66.86920244750976,62.0004997253418C57.24256244750977,62.0004997253418,49.438602447509766,69.8044597253418,49.438602447509766,79.4311997253418C49.438602447509766,79.4311997253418,49.438602447509766,79.4310997253418,49.438602447509766,79.4310997253418Z" fill="#FF917B" fill-opacity="1"/></g><g><path d="M63.99997205200195,98.47156657104492C52.094992052001956,98.47156657104492,42.41057205200195,88.78716657104492,42.41057205200195,76.88216657104492C42.41057205200195,64.97715657104493,52.094992052001956,55.29276657104492,63.99997205200195,55.29276657104492C75.90497205200195,55.29276657104492,85.58937205200195,64.97715657104493,85.58937205200195,76.88216657104492C85.58937205200195,88.78716657104492,75.90497205200195,98.47156657104492,63.99997205200195,98.47156657104492C63.99997205200195,98.47156657104492,63.99997205200195,98.47156657104492,63.99997205200195,98.47156657104492ZM63.99997205200195,59.143416571044924C54.219272052001955,59.143416571044924,46.261222052001955,67.10146657104492,46.261222052001955,76.88216657104492C46.261222052001955,86.66286657104493,54.219272052001955,94.62086657104493,63.99997205200195,94.62086657104493C73.78067205200196,94.62086657104493,81.73867205200196,86.66286657104493,81.73867205200196,76.88216657104492C81.73867205200196,67.10146657104492,73.78067205200196,59.143416571044924,63.99997205200195,59.143416571044924C63.99997205200195,59.143416571044924,63.99997205200195,59.143416571044924,63.99997205200195,59.143416571044924Z" fill="#333333" fill-opacity="1"/></g><g><path d="M52.62583557739258,76.5069283630371C48.71793557739258,76.5069283630371,45.546535577392575,74.1515283630371,45.546535577392575,71.26352836303711C45.546535577392575,68.3691283630371,48.72653557739258,66.02032836303711,52.62583557739258,66.02032836303711C56.525135577392575,66.02032836303711,59.70523557739258,68.37552836303712,59.70523557739258,71.26352836303711C59.70523557739258,74.1515283630371,56.525135577392575,76.5069283630371,52.62583557739258,76.5069283630371C52.62583557739258,76.5069283630371,52.62583557739258,76.5069283630371,52.62583557739258,76.5069283630371ZM52.62583557739258,69.87092836303711C51.58603557739258,69.87092836303711,50.74553557739257,70.49342836303711,50.74553557739257,71.26352836303711C50.74553557739257,72.03372836303711,51.58603557739258,72.65622836303712,52.62583557739258,72.65622836303712C53.66563557739258,72.65622836303712,54.50613557739258,72.03372836303711,54.50613557739258,71.26352836303711C54.50613557739258,70.49342836303711,53.65703557739258,69.87092836303711,52.62583557739258,69.87092836303711C52.62583557739258,69.87092836303711,52.62583557739258,69.87092836303711,52.62583557739258,69.87092836303711ZM75.96093557739258,76.5069283630371C72.06163557739258,76.5069283630371,68.88163557739259,74.1515283630371,68.88163557739259,71.26352836303711C68.88163557739259,68.3691283630371,72.06163557739258,66.02032836303711,75.96093557739258,66.02032836303711C79.86023557739259,66.02032836303711,83.04033557739257,68.37552836303712,83.04033557739257,71.26352836303711C83.04033557739257,74.1515283630371,79.86893557739258,76.5069283630371,75.96093557739258,76.5069283630371C75.96093557739258,76.5069283630371,75.96093557739258,76.5069283630371,75.96093557739258,76.5069283630371ZM75.96093557739258,69.87092836303711C74.92113557739258,69.87092836303711,74.08063557739257,70.49342836303711,74.08063557739257,71.26352836303711C74.08063557739257,72.03372836303711,74.92113557739258,72.65622836303712,75.96093557739258,72.65622836303712C77.00073557739258,72.65622836303712,77.84133557739258,72.03372836303711,77.84133557739258,71.26352836303711C77.84133557739258,70.49342836303711,77.00073557739258,69.87092836303711,75.96093557739258,69.87092836303711C75.96093557739258,69.87092836303711,75.96093557739258,69.87092836303711,75.96093557739258,69.87092836303711ZM47.75613557739258,47.13272836303711C46.31773557739258,47.13272836303711,45.15663557739258,46.27272836303711,45.15663557739258,45.20735836303711C45.15663557739258,42.04341836303711,41.68193557739258,39.46987836303711,37.41003557739258,39.46987836303711C33.138205577392576,39.46987836303711,29.66353557739258,42.04341836303711,29.66353557739258,45.20735836303711C29.66353557739258,46.27272836303711,28.502395577392576,47.13272836303711,27.06398557739258,47.13272836303711C25.625565577392578,47.13272836303711,24.464435577392635,46.27272836303711,24.464435577392635,45.20735836303711C24.464435577392635,39.91912836303711,30.270035577392576,35.61922836303711,37.41003557739258,35.61922836303711C44.55013557739258,35.61922836303711,50.355635577392576,39.91912836303711,50.355635577392576,45.20735836303711C50.355635577392576,46.27272836303711,49.19453557739258,47.13272836303711,47.75613557739258,47.13272836303711C47.75613557739258,47.13272836303711,47.75613557739258,47.13272836303711,47.75613557739258,47.13272836303711ZM101.46213557739257,47.13272836303711C100.02373557739257,47.13272836303711,98.86273557739258,46.27272836303711,98.86273557739258,45.20735836303711C98.86273557739258,42.04341836303711,95.38803557739257,39.46987836303711,91.11603557739258,39.46987836303711C86.84423557739258,39.46987836303711,83.36943557739258,42.04341836303711,83.36943557739258,45.20735836303711C83.36943557739258,46.27272836303711,82.20833557739257,47.13272836303711,80.76993557739257,47.13272836303711C79.33153557739257,47.13272836303711,78.17043557739258,46.27272836303711,78.17043557739258,45.20735836303711C78.17043557739258,39.91912836303711,83.97613557739257,35.61922836303711,91.11603557739258,35.61922836303711C98.25613557739258,35.61922836303711,104.06163557739258,39.91912836303711,104.06163557739258,45.20735836303711C104.06163557739258,46.27272836303711,102.90063557739258,47.13272836303711,101.46213557739257,47.13272836303711C101.46213557739257,47.13272836303711,101.46213557739257,47.13272836303711,101.46213557739257,47.13272836303711Z" fill="#333333" fill-opacity="1"/></g></g></svg>