<svg xmlns="http://www.w3.org/2000/svg" xmlns:xlink="http://www.w3.org/1999/xlink" fill="none" version="1.1" width="129.15826416015625" height="83.28005981445312" viewBox="0 0 129.15826416015625 83.28005981445312"><g style="mix-blend-mode:passthrough"><g><path d="M106.30881861877441,37.450718072509765C106.31681861877442,37.12101807250976,106.35681861877441,36.79521807250977,106.35681861877441,36.46191807250977C106.35681861877441,18.625618072509766,91.89891861877442,4.167118072509794,74.06251861877442,4.167118072509794C61.195118618774416,4.167118072509794,50.118218618774414,11.711608072509765,44.92571861877441,22.601418072509766C42.675418618774415,21.470018072509767,40.172618618774415,20.774118072509765,37.48281861877442,20.774118072509765C29.238318618774414,20.774118072509765,22.438118618774414,26.772618072509765,21.099218618774415,34.63461807250977C11.255368618774414,37.99571807250977,4.166818618774414,47.30251807250976,4.166818618774414,58.281818072509765C4.166818618774414,72.08101807250976,15.353318618774415,83.26801807250976,29.148718618774414,83.28001807250976C29.148718618774414,83.28001807250976,106.35781861877442,83.28001807250976,106.35781861877442,83.28001807250976C106.35781861877442,83.28001807250976,106.35781861877442,83.27591807250977,106.35781861877442,83.27591807250977C118.96481861877442,83.21091807250977,129.1578186187744,72.98031807250976,129.1578186187744,60.365318072509766C129.1578186187744,47.725718072509764,118.93581861877442,37.487318072509765,106.30881861877441,37.450718072509765C106.30881861877441,37.450718072509765,106.30881861877441,37.450718072509765,106.30881861877441,37.450718072509765Z" fill="#98C4D8" fill-opacity="1"/></g><g><path d="M102.142,33.2836C102.15,32.9539,102.19,32.6281,102.19,32.2948C102.19,14.4585,87.7321,0,69.8957,0C57.0283,0,45.9514,7.54449,40.7588,18.4343C38.5086,17.3029,36.0058,16.607,33.316,16.607C25.0715,16.607,18.2713,22.6055,16.9324,30.4675C7.08854,33.8286,0,43.1354,0,54.1147C0,67.9139,11.1865,79.1009,24.9819,79.1129C24.9819,79.1129,102.191,79.1129,102.191,79.1129C102.191,79.1129,102.191,79.1088,102.191,79.1088C114.798,79.0438,124.992,68.8133,124.992,56.1982C124.991,43.5587,114.769,33.3203,102.142,33.2836C102.142,33.2836,102.142,33.2836,102.142,33.2836Z" fill="#EFD9A0" fill-opacity="1"/></g><g><path d="M43.64406433447266,28.420433796386718C44.81636533447266,30.12710379638672,48.70668533447265,29.49120379638672,52.33333533447266,27.00005379638672C55.95995533447265,24.50893379638672,57.94965533447265,21.10591379638672,56.77735533447266,19.39925379638672C55.604955334472656,17.69255779638672,51.714685334472655,18.32851379638672,48.08803533447266,20.819633796386718C44.46138533447266,23.31078379638672,42.47176233447266,26.71376379638672,43.64406433447266,28.420433796386718C43.64406433447266,28.420433796386718,43.64406433447266,28.420433796386718,43.64406433447266,28.420433796386718Z" fill="#FEFEFE" fill-opacity="1"/></g><g><path d="M35.59380306005859,41.530864515380856C36.37535406005859,42.66868451538086,38.62303406005859,42.48228451538086,40.61412406005859,41.11460451538086C42.60521406005859,39.74693451538086,43.5857740600586,37.71580451538086,42.80419406005859,36.57804851538086C42.022664060058595,35.44023151538086,39.77498406005859,35.62657151538086,37.78386406005859,36.994244515380856C35.7927770600586,38.36198451538086,34.812247060058596,40.39305451538086,35.59380306005859,41.530864515380856C35.59380306005859,41.530864515380856,35.59380306005859,41.530864515380856,35.59380306005859,41.530864515380856Z" fill="#FEFEFE" fill-opacity="1"/></g></g></svg>