<svg xmlns="http://www.w3.org/2000/svg" xmlns:xlink="http://www.w3.org/1999/xlink" fill="none" version="1.1" width="129.73757934570312" height="108.26791381835938" viewBox="0 0 129.73757934570312 108.26791381835938"><g style="mix-blend-mode:passthrough"><g><path d="M8.31801986694336,84.71907241516114C8.31801986694336,84.71907241516114,24.87541986694336,84.71907241516114,24.87541986694336,84.71907241516114C24.87541986694336,84.71907241516114,24.87541986694336,105.43367241516113,24.87541986694336,105.43367241516113C24.87541986694336,105.43367241516113,8.31801986694336,105.43367241516113,8.31801986694336,105.43367241516113C8.31801986694336,105.43367241516113,8.31801986694336,84.71907241516114,8.31801986694336,84.71907241516114C8.31801986694336,84.71907241516114,8.31801986694336,84.71907241516114,8.31801986694336,84.71907241516114ZM41.43271986694336,51.60437241516114C41.43271986694336,51.60437241516114,57.99011986694336,51.60437241516114,57.99011986694336,51.60437241516114C57.99011986694336,51.60437241516114,57.99011986694336,105.43367241516113,57.99011986694336,105.43367241516113C57.99011986694336,105.43367241516113,41.43271986694336,105.43367241516113,41.43271986694336,105.43367241516113C41.43271986694336,105.43367241516113,41.43271986694336,51.60437241516114,41.43271986694336,51.60437241516114C41.43271986694336,51.60437241516114,41.43271986694336,51.60437241516114,41.43271986694336,51.60437241516114ZM70.46181986694336,68.16177241516112C70.46181986694336,68.16177241516112,87.01921986694336,68.16177241516112,87.01921986694336,68.16177241516112C87.01921986694336,68.16177241516112,87.01921986694336,105.43367241516113,87.01921986694336,105.43367241516113C87.01921986694336,105.43367241516113,70.46181986694336,105.43367241516113,70.46181986694336,105.43367241516113C70.46181986694336,105.43367241516113,70.46181986694336,68.16177241516112,70.46181986694336,68.16177241516112C70.46181986694336,68.16177241516112,70.46181986694336,68.16177241516112,70.46181986694336,68.16177241516112ZM107.66211986694336,30.889772415161133C107.66211986694336,30.889772415161133,124.21901986694336,30.889772415161133,124.21901986694336,30.889772415161133C124.21901986694336,30.889772415161133,124.21901986694336,101.27647241516114,124.21901986694336,101.27647241516114C124.21901986694336,101.27647241516114,107.66211986694336,101.27647241516114,107.66211986694336,101.27647241516114C107.66211986694336,101.27647241516114,107.66211986694336,30.889772415161133,107.66211986694336,30.889772415161133C107.66211986694336,30.889772415161133,107.66211986694336,30.889772415161133,107.66211986694336,30.889772415161133Z" fill="#CAE4FF" fill-opacity="1"/></g><g><path d="M16.77239024505615,70.7809C21.574690245056154,70.7809,25.516990245056153,66.8387,25.445290245056153,62.0363C25.445290245056153,60.8895,25.230290245056153,59.8143,24.800190245056154,58.7392C24.800190245056154,58.7392,45.514790245056155,38.0246,45.514790245056155,38.0246C46.58999024505615,38.4546,47.66509024505615,38.6697,48.811890245056155,38.6697C50.89059024505615,38.6697,52.82589024505615,37.8812,54.40279024505615,36.5193C54.40279024505615,36.5193,72.32199024505616,45.479,72.32199024505616,45.479C72.32199024505616,45.694,72.17859024505616,45.8373,72.17859024505616,46.0524C72.17859024505616,50.8547,76.04919024505615,54.797,80.85149024505616,54.797C85.65389024505615,54.797,89.59609024505615,50.9264,89.59609024505615,46.1241C89.59609024505615,44.9772,89.38109024505616,43.8304,88.95099024505615,42.7553C88.95099024505615,42.7553,109.80879024505616,16.6649,109.80879024505616,16.6649C114.25279024505615,18.4568,119.34179024505615,16.3065,121.13379024505615,11.8625C122.42379024505615,8.63706,121.70779024505615,4.90987,119.19879024505616,2.47286C115.75779024505616,-0.824286,110.31079024505615,-0.824286,106.87019024505615,2.47286C104.36149024505615,4.98154,103.64479024505616,8.70874,105.00659024505615,12.0059C105.00659024505615,12.0059,84.14869024505616,38.0963,84.14869024505616,38.0963C81.20989024505616,37.0211,77.84109024505615,37.5228,75.40409024505615,39.6015C75.40409024505615,39.6015,57.41319024505615,30.6419,57.41319024505615,30.6419C57.41319024505615,30.4268,57.55649024505615,30.2835,57.55649024505615,30.0685C57.55649024505615,27.7748,56.62469024505615,25.5528,55.047790245056156,23.9042C51.60739024505615,20.6071,46.159890245056154,20.6071,42.719390245056154,23.9042C40.28239024505615,26.4129,39.49399024505615,30.1401,40.855790245056156,33.3656C40.855790245056156,33.3656,20.06949024505615,54.1519,20.06949024505615,54.1519C16.84407024505615,52.8617,13.188560245056152,53.6501,10.608190245056152,56.0155C7.167698245056153,59.3843,7.167698245056153,64.9034,10.536510245056153,68.3439C12.256750245056153,69.9208,14.478730245056152,70.8526,16.772400245056154,70.7809C16.772400245056154,70.7809,16.77239024505615,70.7809,16.77239024505615,70.7809ZM111.67279024505615,7.20352C112.46079024505615,6.48676,113.75079024505615,6.48676,114.46779024505615,7.34686C115.18479024505615,8.13532,115.18479024505615,9.28214,114.46779024505615,10.0706C113.67979024505615,10.7874,112.46079024505615,10.7874,111.67279024505615,10.0706C110.88379024505615,9.21048,110.88379024505615,7.99198,111.67279024505615,7.20352C111.67279024505615,7.20352,111.67279024505615,7.20352,111.67279024505615,7.20352ZM79.56129024505616,44.6188C80.34979024505616,43.8304,81.56829024505615,43.8304,82.35669024505616,44.6188C83.14519024505616,45.4073,83.14519024505616,46.6258,82.35669024505616,47.4142C81.56829024505615,48.131,80.34979024505616,48.131,79.56129024505616,47.4142C78.77289024505615,46.6258,78.77289024505615,45.4073,79.56129024505616,44.6188C79.56129024505616,44.6188,79.56129024505616,44.6188,79.56129024505616,44.6188ZM47.45009024505615,28.5632C48.238490245056155,27.7748,49.456990245056154,27.7748,50.24549024505615,28.5632C51.03389024505615,29.3517,51.03389024505615,30.5702,50.24549024505615,31.3586C49.456990245056154,32.0754,48.238490245056155,32.0754,47.45009024505615,31.3586C46.80499024505615,30.6418,46.80499024505615,29.3517,47.45009024505615,28.5632C47.45009024505615,28.5632,47.45009024505615,28.5632,47.45009024505615,28.5632ZM15.410530245056153,60.6745C16.198980245056152,59.886,17.417480245056154,59.886,18.205890245056153,60.6745C18.994390245056152,61.4629,18.994390245056152,62.7531,18.205890245056153,63.4699C17.417480245056154,64.1866,16.198980245056152,64.1866,15.410530245056153,63.4699C14.765450245056153,62.7531,14.908790245056153,61.5346,15.410530245056153,60.6745C15.410530245056153,60.6745,15.410530245056153,60.6745,15.410530245056153,60.6745Z" fill="#0972E7" fill-opacity="1"/></g><g><path d="M126.438,101.53024685363769C126.438,101.53024685363769,124.431,101.53024685363769,124.431,101.53024685363769C124.431,101.53024685363769,124.431,29.996746853637696,124.431,29.996746853637696C124.431,28.133166853637697,122.926,26.627946853637695,121.062,26.627946853637695C121.062,26.627946853637695,105.007,26.627946853637695,105.007,26.627946853637695C103.143,26.627946853637695,101.638,28.133166853637697,101.638,29.996746853637696C101.638,29.996746853637696,101.638,101.53024685363769,101.638,101.53024685363769C101.638,101.53024685363769,92.3198,101.53024685363769,92.3198,101.53024685363769C92.3198,101.53024685363769,92.3198,67.41204685363769,92.3198,67.41204685363769C92.3198,65.5484468536377,90.8146,64.0432468536377,88.951,64.0432468536377C88.951,64.0432468536377,72.8954,64.0432468536377,72.8954,64.0432468536377C71.0318,64.0432468536377,69.5266,65.5484468536377,69.5266,67.41204685363769C69.5266,67.41204685363769,69.5266,101.53024685363769,69.5266,101.53024685363769C69.5266,101.53024685363769,60.2802,101.53024685363769,60.2802,101.53024685363769C60.2802,101.53024685363769,60.2802,51.4281468536377,60.2802,51.4281468536377C60.2802,49.564546853637694,58.775,48.05934685363769,56.9114,48.05934685363769C56.9114,48.05934685363769,40.8558,48.05934685363769,40.8558,48.05934685363769C38.9922,48.05934685363769,37.487,49.564546853637694,37.487,51.4281468536377C37.487,51.4281468536377,37.487,101.53024685363769,37.487,101.53024685363769C37.487,101.53024685363769,28.169,101.53024685363769,28.169,101.53024685363769C28.169,101.53024685363769,28.169,83.46774685363769,28.169,83.46774685363769C28.169,81.6041468536377,26.6638,80.0988468536377,24.8002,80.0988468536377C24.8002,80.0988468536377,8.74458,80.0988468536377,8.74458,80.0988468536377C6.88098,80.0988468536377,5.37576,81.6041468536377,5.37576,83.46774685363769C5.37576,83.46774685363769,5.37576,101.53024685363769,5.37576,101.53024685363769C5.37576,101.53024685363769,3.36881,101.53024685363769,3.36881,101.53024685363769C1.50521,101.53024685363769,0,103.0355468536377,0,104.8990468536377C0,106.76264685363769,1.50521,108.2679468536377,3.36881,108.2679468536377C3.36881,108.2679468536377,126.366,108.2679468536377,126.366,108.2679468536377C128.23,108.2679468536377,129.735,106.76264685363769,129.735,104.8990468536377C129.807,103.0355468536377,128.302,101.53024685363769,126.438,101.53024685363769C126.438,101.53024685363769,126.438,101.53024685363769,126.438,101.53024685363769ZM12.1134,101.53024685363769C12.1134,101.53024685363769,12.1134,86.83654685363769,12.1134,86.83654685363769C12.1134,86.83654685363769,21.4314,86.83654685363769,21.4314,86.83654685363769C21.4314,86.83654685363769,21.4314,101.53024685363769,21.4314,101.53024685363769C21.4314,101.53024685363769,12.1134,101.53024685363769,12.1134,101.53024685363769C12.1134,101.53024685363769,12.1134,101.53024685363769,12.1134,101.53024685363769ZM44.2246,101.53024685363769C44.2246,101.53024685363769,44.2246,54.7252468536377,44.2246,54.7252468536377C44.2246,54.7252468536377,53.5426,54.7252468536377,53.5426,54.7252468536377C53.5426,54.7252468536377,53.5426,101.53024685363769,53.5426,101.53024685363769C53.5426,101.53024685363769,44.2246,101.53024685363769,44.2246,101.53024685363769C44.2246,101.53024685363769,44.2246,101.53024685363769,44.2246,101.53024685363769ZM76.3359,101.53024685363769C76.3359,101.53024685363769,76.3359,70.78094685363769,76.3359,70.78094685363769C76.3359,70.78094685363769,85.6539,70.78094685363769,85.6539,70.78094685363769C85.6539,70.78094685363769,85.6539,101.53024685363769,85.6539,101.53024685363769C85.6539,101.53024685363769,76.3359,101.53024685363769,76.3359,101.53024685363769C76.3359,101.53024685363769,76.3359,101.53024685363769,76.3359,101.53024685363769ZM108.447,101.53024685363769C108.447,101.53024685363769,108.447,33.365586853637694,108.447,33.365586853637694C108.447,33.365586853637694,117.765,33.365586853637694,117.765,33.365586853637694C117.765,33.365586853637694,117.765,101.53024685363769,117.765,101.53024685363769C117.765,101.53024685363769,108.447,101.53024685363769,108.447,101.53024685363769C108.447,101.53024685363769,108.447,101.53024685363769,108.447,101.53024685363769Z" fill="#0972E7" fill-opacity="1"/></g></g></svg>