<svg xmlns="http://www.w3.org/2000/svg" xmlns:xlink="http://www.w3.org/1999/xlink" fill="none" version="1.1" width="128.53741455078125" height="150.5303955078125" viewBox="0 0 128.53741455078125 150.5303955078125"><g style="mix-blend-mode:passthrough"><g><path d="M4.955511093139648,63.389301104736326C4.955526351939649,96.15640110473633,31.518511093139647,122.71910110473632,64.28571109313964,122.71910110473632C97.05281109313965,122.71910110473632,123.61551109313965,96.15640110473633,123.61551109313965,63.389301104736326C123.61551109313965,30.622101104736327,97.05281109313965,4.059101104736332,64.28571109313964,4.059101104736332C31.518511093139647,4.059101104736332,4.955511093139648,30.622101104736327,4.955511093139648,63.389301104736326C4.955511093139648,63.389301104736326,4.955511093139648,63.389301104736326,4.955511093139648,63.389301104736326Z" fill="#FFBAB0" fill-opacity="1"/></g><g><path d="M64.26872207336426,125.42509839248657C30.009222073364256,125.41609839248657,2.2431899033642577,97.63739839248657,2.249423122634258,63.377998392486575C2.249415493234258,29.129798392486574,30.02052207336426,1.3562130924865723,64.27992207336426,1.3530983924865723C98.54502207336425,1.3530983924865723,126.31842207336426,29.124198392486573,126.32142207336426,63.383598392486576C126.28742207336425,97.63859839248657,98.52362207336425,125.39709839248657,64.26872207336426,125.42509839248657C64.26872207336426,125.42509839248657,64.26872207336426,125.42509839248657,64.26872207336426,125.42509839248657ZM64.26872207336426,6.765238392486572C32.98672207336426,6.774588392486573,7.6352220733642575,32.14119839248657,7.644562073364257,63.42319839248657C7.6539220733642575,94.70519839248657,33.02052207336426,120.05709839248657,64.30252207336426,120.04709839248657C95.58452207336425,120.03809839248657,120.93642207336426,94.67129839248658,120.92642207336426,63.38929839248657C120.88942207336426,32.118998392486574,95.53912207336425,6.783868392486572,64.26872207336426,6.765238392486572C64.26872207336426,6.765238392486572,64.26872207336426,6.765238392486572,64.26872207336426,6.765238392486572Z" fill="#783741" fill-opacity="1"/></g><g><path d="M46.442531651306155,18.75642367248535C42.93793165130615,10.531973672485352,34.127931651306156,5.9112936724853515,25.36943165130615,7.704002672485352C16.611021651306153,9.496713672485352,10.325043151306152,17.207303672485352,10.333740665736153,26.147323672485353C10.333740665736153,31.339623672485352,14.866361651306153,38.83192367248535,18.265841651306154,42.23142367248535C26.29943165130615,32.79402367248535,34.41753165130615,22.764723672485353,46.442531651306155,18.75642367248535C46.442531651306155,18.75642367248535,46.442531651306155,18.75642367248535,46.442531651306155,18.75642367248535Z" fill="#FFFFFF" fill-opacity="1"/></g><g><path d="M18.265863987731933,46.273559771728515C17.192663987731933,46.27925977172852,16.162423987731934,45.852559771728515,15.407573987731933,45.08965977172851C11.619093987731933,41.301159771728514,6.291564783523934,32.929359771728514,6.291564783523934,26.147359771728517C6.288719017731934,15.295959771728516,13.918533987731934,5.9393097717285155,24.548463987731935,3.758369771728516C35.17846398773193,1.5774397717285156,45.876163987731935,7.173839771728516,50.14636398773193,17.149659771728516C50.593163987731934,18.186459771728515,50.58586398773193,19.362859771728516,50.12646398773193,20.394059771728514C49.66716398773193,21.425259771728516,48.79746398773193,22.217359771728514,47.727863987731936,22.578759771728517C37.309563987731934,26.062759771728516,29.749563987731932,34.97575977172852,22.358563987731934,43.567459771728515C22.358563987731934,43.567459771728515,21.276163987731934,44.85285977172852,21.276163987731934,44.85285977172852C20.541563987731934,45.71355977172851,19.480963987731933,46.22845977172852,18.350263987731935,46.27345977172852C18.350263987731935,46.27345977172852,18.265863987731933,46.273559771728515,18.265863987731933,46.273559771728515C18.265863987731933,46.273559771728515,18.265863987731933,46.273559771728515,18.265863987731933,46.273559771728515ZM29.140763987731933,11.382449771728515C20.99676398773193,11.401089771728516,14.402073987731933,18.003359771728515,14.392763987731934,26.147359771728517C14.392763987731934,28.718159771728516,16.185543987731933,32.692659771728515,18.333463987731932,35.889159771728515C24.726463987731933,28.447459771728514,31.474663987731933,21.124259771728514,40.55696398773193,16.777659771728516C37.75276398773194,13.358759771728515,33.562563987731934,11.378529771728516,29.140763987731933,11.382469771728516C29.140763987731933,11.382469771728516,29.140763987731933,11.382449771728515,29.140763987731933,11.382449771728515Z" fill="#783741" fill-opacity="1"/></g><g><path d="M82.1286621090625,18.756486374664306C85.6460600390625,10.554256374664307,94.4434400390625,5.9534863746643065,103.18654003906249,7.743900374664307C111.9296400390625,9.534306374664308,118.2105400390625,17.222826374664308,118.2205400390625,26.147386374664308C117.7915400390625,31.980186374664306,115.4080400390625,37.497886374664304,111.45534003906249,41.80858637466431C103.4387400390625,32.37128637466431,94.1537400390625,22.764786374664304,82.1285400390625,18.756386374664306C82.1285400390625,18.756386374664306,82.1286621090625,18.756486374664306,82.1286621090625,18.756486374664306Z" fill="#FFFFFF" fill-opacity="1"/></g><g><path d="M111.48917131347656,45.8507730102539C111.48917131347656,45.8507730102539,111.32007131347656,45.8507730102539,111.32007131347656,45.8507730102539C110.19477131347656,45.80317301025391,109.14047131347657,45.2882730102539,108.41107131347655,44.430073010253906C100.58037131347656,35.26337301025391,91.83647131347657,26.265673010253906,80.84323131347656,22.578673010253905C79.77060131347656,22.220973010253907,78.89682231347656,21.430273010253906,78.43399331347656,20.398673010253905C77.97128531347656,19.366973010253908,77.96176431347656,18.188673010253908,78.40768731347656,17.149673010253906C82.69229131347656,7.187983010253906,93.38457131347656,1.6056230102539062,104.00737131347657,3.7842660102539063C114.63027131347656,5.962903010253907,122.26207131347655,15.303273010253907,122.27947131347656,26.147273010253905C122.27947131347656,32.77707301025391,118.23737131347656,40.75997301025391,114.34737131347657,44.75137301025391C113.57567131347656,45.4785730102539,112.54927131347657,45.87337301025391,111.48907131347656,45.8507730102539C111.48907131347656,45.8507730102539,111.48917131347656,45.8507730102539,111.48917131347656,45.8507730102539ZM88.03110131347657,16.743773010253907C97.11327131347656,20.955073010253905,104.57177131347656,27.923073010253905,111.23547131347657,35.347873010253906C112.93147131347656,32.55127301025391,113.93987131347657,29.392373010253905,114.17827131347656,26.130373010253905C114.17067131347656,19.905973010253906,110.26057131347656,14.354873010253906,104.40217131347656,12.251753010253907C98.54377131347655,10.148663010253905,91.99587131347656,11.945363010253907,88.03110131347657,16.743773010253907C88.03110131347657,16.743773010253907,88.03110131347657,16.743773010253907,88.03110131347657,16.743773010253907Z" fill="#783741" fill-opacity="1"/></g><g><path d="M48.96265659179687,124.14004046630859C48.96265659179687,124.14004046630859,26.553100591796873,146.5495404663086,26.553100591796873,146.5495404663086C26.553100591796873,146.5495404663086,26.519256591796875,110.5930404663086,26.519256591796875,110.5930404663086C26.519256591796875,110.5930404663086,48.96265659179687,124.1401404663086,48.96265659179687,124.1401404663086C48.96265659179687,124.1401404663086,48.96265659179687,124.14004046630859,48.96265659179687,124.14004046630859Z" fill="#FFBAB0" fill-opacity="1"/></g><g><path d="M26.55308529296875,150.5241090209961C24.32064529296875,150.5241090209961,22.51092529296878,148.7144090209961,22.51092529296878,146.48190902099608C22.51092529296878,146.48190902099608,22.51092529296878,110.5254090209961,22.51092529296878,110.5254090209961C22.53689579296875,109.0785090209961,23.33436629296875,107.75587902099609,24.60182529296875,107.05763402099609C25.86927529296875,106.3593300209961,27.41331529296875,106.3917400209961,28.65026529296875,107.14277802099609C28.65026529296875,107.14277802099609,51.09352529296875,120.67300902099609,51.09352529296875,120.67300902099609C52.148625292968745,121.32450902099609,52.851525292968745,122.41920902099609,53.00472529296875,123.6497090209961C53.16752529296875,124.89460902099609,52.74252529296875,126.1445090209961,51.85462529296875,127.03220902099609C51.85462529296875,127.03220902099609,29.41137529296875,149.4078090209961,29.41137529296875,149.4078090209961C28.643385292968752,150.1427090209961,27.61587529296875,150.5440090209961,26.553115292968748,150.5242090209961C26.553115292968748,150.5242090209961,26.55308529296875,150.5241090209961,26.55308529296875,150.5241090209961ZM30.57832529296875,117.6962090209961C30.57832529296875,117.6962090209961,30.57832529296875,136.7908090209961,30.57832529296875,136.7908090209961C30.57832529296875,136.7908090209961,42.417325292968755,124.9518090209961,42.417325292968755,124.9518090209961C42.417325292968755,124.9518090209961,30.57832529296875,117.6962090209961,30.57832529296875,117.6962090209961C30.57832529296875,117.6962090209961,30.57832529296875,117.6962090209961,30.57832529296875,117.6962090209961Z" fill="#783741" fill-opacity="1"/></g><g><path d="M80.96157836914062,124.14004046630859C80.96157836914062,124.14004046630859,103.35417836914063,146.5495404663086,103.35417836914063,146.5495404663086C103.35417836914063,146.5495404663086,103.38807836914063,110.5930404663086,103.38807836914063,110.5930404663086C103.38807836914063,110.5930404663086,80.96157836914062,124.1401404663086,80.96157836914062,124.1401404663086C80.96157836914062,124.1401404663086,80.96157836914062,124.14004046630859,80.96157836914062,124.14004046630859Z" fill="#FFBAB0" fill-opacity="1"/></g><g><path d="M103.35410855712891,150.5242005859375C102.2816085571289,150.5260005859375,101.2528085571289,150.0999005859375,100.4959085571289,149.3402005859375C100.4959085571289,149.3402005859375,78.1034185571289,126.9984005859375,78.1034185571289,126.9984005859375C77.2212805571289,126.1207005859375,76.79250855712891,124.8856005859375,76.9411906571289,123.65010058593751C77.08981155712891,122.4146005859375,77.7992835571289,121.3165005859375,78.8644685571289,120.6731005859375C78.8644685571289,120.6731005859375,101.30780855712891,107.1427785859375,101.30780855712891,107.1427785859375C102.5421085571289,106.3891775859375,104.0860085571289,106.3556685859375,105.3518085571289,107.0550705859375C106.61780855712891,107.7544105859375,107.4112085571289,109.0792405859375,107.43030855712891,110.5254105859375C107.43030855712891,110.5254105859375,107.43030855712891,146.5496005859375,107.43030855712891,146.5496005859375C107.41440855712891,148.2028005859375,106.39770855712891,149.68120058593752,104.8595085571289,150.2874005859375C104.37650855712891,150.4578005859375,103.86620855712891,150.5382005859375,103.35420855712891,150.5242005859375C103.35420855712891,150.5242005859375,103.35410855712891,150.5242005859375,103.35410855712891,150.5242005859375ZM87.4730085571289,124.9350005859375C87.4730085571289,124.9350005859375,99.3120085571289,136.7739005859375,99.3120085571289,136.7739005859375C99.3120085571289,136.7739005859375,99.3120085571289,117.7639005859375,99.3120085571289,117.7639005859375C99.3120085571289,117.7639005859375,87.4730085571289,124.9350005859375,87.4730085571289,124.9350005859375C87.4730085571289,124.9350005859375,87.4730085571289,124.9350005859375,87.4730085571289,124.9350005859375Z" fill="#783741" fill-opacity="1"/></g><g><path d="M4.955511093139648,74.17971400756835C4.955526351939649,106.94681400756836,31.518511093139647,133.50951400756836,64.28571109313964,133.50951400756836C97.05281109313965,133.50951400756836,123.61551109313965,106.94681400756836,123.61551109313965,74.17971400756835C123.61551109313965,41.41251400756836,97.05281109313965,14.84951400756836,64.28571109313964,14.84951400756836C31.518511093139647,14.84951400756836,4.955511093139648,41.41251400756836,4.955511093139648,74.17971400756835C4.955511093139648,74.17971400756835,4.955511093139648,74.17971400756835,4.955511093139648,74.17971400756835Z" fill="#FFBAB0" fill-opacity="1"/></g><g><path d="M64.26872207336426,136.21548220825196C30.009222073364256,136.20648220825194,2.2431899033642577,108.42778220825195,2.249423122634258,74.16838220825196C2.2494078638642576,39.92018220825196,30.02052207336426,12.146594998251953,64.27992207336426,12.143482208251953C98.54502207336425,12.143482208251953,126.31842207336426,39.91458220825196,126.32142207336426,74.17398220825196C126.28742207336425,108.42898220825195,98.52362207336425,136.18748220825194,64.26872207336426,136.21548220825196C64.26872207336426,136.21548220825196,64.26872207336426,136.21548220825196,64.26872207336426,136.21548220825196ZM64.26872207336426,17.538612208251955C32.98892207336426,17.547962208251953,7.6383420733642575,42.91118220825196,7.644562073364257,74.19098220825195C7.644562073364257,105.45948220825196,33.000222073364256,130.81748220825196,64.28002207336425,130.82048220825197C95.56542207336426,130.82048220825197,120.92342207336426,105.46508220825196,120.92642207336426,74.18528220825195C120.90142207336426,42.90608220825195,95.54792207336426,17.557262208251952,64.26872207336426,17.53862220825195C64.26872207336426,17.53862220825195,64.26872207336426,17.538612208251955,64.26872207336426,17.538612208251955Z" fill="#783741" fill-opacity="1"/></g><g><path d="M103.354,150.524C102.312,150.525,101.31,150.119,100.564,149.391C100.564,149.391,85.6633,135.083,85.6633,135.083C78.898,137.241,71.8257,138.281,64.7254,138.161C57.8747,138.36,51.0331,137.527,44.43,135.692C44.43,135.692,29.2085,149.476,29.2085,149.476C28.0245,150.555,26.3148,150.833,24.8498,150.185C23.3848,149.536,22.4409,148.084,22.4433,146.482C22.4433,146.482,22.4434,123.616,22.4434,123.616C8.47874,110.927,0.360275,93.0445,0,74.1797C0,74.1797,0,63.3893,0,63.3893C0.229752,53.0624,3.02542,42.955,8.13507,33.9779C7.01065,31.5146,6.38415,28.8534,6.29156,26.1472C6.29852,18.3647,10.2633,11.1201,16.8145,6.91912C23.3658,2.71812,31.6039,2.13761,38.6796,5.37839C54.9971,-1.79279,73.574,-1.79279,89.8915,5.37838C96.9672,2.13755,105.205,2.71803,111.757,6.91907C118.308,11.1201,122.273,18.3648,122.28,26.1474C122.195,28.9534,121.622,31.7232,120.588,34.3332C125.575,43.2226,128.304,53.1995,128.537,63.3893C128.537,63.3893,128.537,74.1796,128.537,74.1796C128.201,92.5217,120.597,109.98,107.396,122.719C107.396,122.719,107.396,146.55,107.396,146.55C107.386,148.17,106.417,149.631,104.927,150.27C104.425,150.46,103.89,150.546,103.354,150.524C103.354,150.524,103.354,150.524,103.354,150.524ZM29.1408,11.3824C20.9968,11.4011,14.4021,18.0034,14.3928,26.1473C14.5792,28.3215,15.2249,30.4313,16.287,32.3374C16.881,33.5395,16.843,34.9574,16.1855,36.1259C10.8073,45.6647,8.08427,54.7469,8.08427,63.3893C8.08427,63.3893,8.08427,74.1796,8.08427,74.1796C8.3917,91.3442,16.0463,107.553,29.1068,118.694C30.0138,119.462,30.5442,120.584,30.5613,121.772C30.5613,121.772,30.5613,137.366,30.5613,137.366C30.5613,137.366,40.709,128.115,40.709,128.115C41.8277,127.085,43.4325,126.778,44.8527,127.32C49.9265,129.231,56.0658,130.093,64.6575,130.093C71.6214,130.283,78.557,129.135,85.0882,126.711C86.5628,126.134,88.2378,126.464,89.384,127.557C89.384,127.557,99.3289,136.994,99.3289,136.994C99.3289,136.994,99.3289,120.927,99.3289,120.927C99.33,119.763,99.8285,118.655,100.699,117.882C113.026,106.659,120.179,90.8483,120.47,74.1797C120.47,74.1797,120.47,63.3893,120.47,63.3893C120.47,54.9329,117.832,45.9014,112.622,36.5487C112.012,35.4388,111.949,34.1085,112.453,32.9463C113.451,30.8223,114.025,28.5246,114.145,26.1811C114.151,20.9022,111.335,16.0227,106.761,13.3867C102.187,10.7508,96.5534,10.7604,91.9887,13.412C90.8318,14.063,89.4297,14.1072,88.2341,13.5304C73.0943,6.26807,55.4769,6.26807,40.3371,13.5304C39.1285,14.1178,37.7061,14.0607,36.5486,13.3781C34.298,12.0725,31.7427,11.3841,29.1408,11.3824C29.1408,11.3824,29.1408,11.3824,29.1408,11.3824Z" fill="#783741" fill-opacity="1"/></g><g><path d="M19.787925720236718,74.17971065063477C19.78786468503672,98.75511065063476,39.71019520263672,118.67741065063477,64.28559520263673,118.67741065063477C88.86089520263671,118.67741065063477,108.78319520263672,98.75511065063476,108.78319520263672,74.17971065063477C108.78329520263672,49.604310650634766,88.86089520263671,29.682010650634766,64.28559520263673,29.682010650634766C39.71019520263672,29.682010650634766,19.78789520263672,49.604310650634766,19.78789520263672,74.17971065063477C19.78789520263672,74.17971065063477,19.787925720236718,74.17971065063477,19.787925720236718,74.17971065063477Z" fill="#FFFFFF" fill-opacity="1"/></g><g><path d="M64.26869399414062,121.36635603637696C38.196693994140624,121.36645603637696,17.061981544140625,100.22915603637695,17.065094337943624,74.15715603637696C17.065094337943624,48.09075603637695,38.202293994140625,26.956058846376955,64.27429399414063,26.959156376818953C90.34069399414062,26.959156376818953,111.47539399414063,48.09635603637695,111.47229399414063,74.16835603637696C111.44129399414062,100.22445603637695,90.32469399414063,121.33845603637695,64.26869399414062,121.36645603637696C64.26869399414062,121.36645603637696,64.26869399414062,121.36635603637696,64.26869399414062,121.36635603637696ZM64.26869399414062,32.371186036376955C41.180693994140626,32.38052603637695,22.470873994140625,51.10295603637695,22.477113994140623,74.19095603637695C22.483323994140626,97.27895603637695,41.203193994140626,115.99125603637695,64.29119399414063,115.98815603637695C87.37359399414062,115.98815603637695,106.09089399414063,97.27325603637695,106.09399399414062,74.18535603637696C106.06919399414062,51.09785603637695,87.35609399414062,32.389856036376955,64.26869399414062,32.371186036376955C64.26869399414062,32.371186036376955,64.26869399414062,32.371186036376955,64.26869399414062,32.371186036376955Z" fill="#783741" fill-opacity="1"/></g><g><path d="M88.94433436889648,76.86890567016601C88.94433436889648,76.86890567016601,64.26861436889648,76.86890567016601,64.26861436889648,76.86890567016601C62.780674368896484,76.86890567016601,61.571868668896485,75.66760567016601,61.562621858896485,74.17970567016602C61.562621858896485,74.17970567016602,61.562621858896485,47.11922567016602,61.562621858896485,47.11922567016602C61.48220806889648,46.104485670166014,61.977996368896484,45.13048167016601,62.84585436889648,44.59843867016602C63.71368436889649,44.06639467016601,64.80670436889649,44.06639467016601,65.67446436889648,44.59843867016602C66.54235436889648,45.13045167016602,67.03814436889648,46.104485670166014,66.95779436889649,47.11922567016602C66.95779436889649,47.11922567016602,66.95779436889649,71.47360567016602,66.95779436889649,71.47360567016602C66.95779436889649,71.47360567016602,88.94443436889648,71.47360567016602,88.94443436889648,71.47360567016602C90.35163436889648,71.58510567016602,91.43683436889648,72.75960567016601,91.43683436889648,74.17120567016602C91.43683436889648,75.58280567016601,90.35163436889648,76.757305670166,88.94443436889648,76.86880567016601C88.94443436889648,76.86880567016601,88.94433436889648,76.86890567016601,88.94433436889648,76.86890567016601Z" fill="#783741" fill-opacity="1"/></g><g><path d="M58.1124267578125,74.17965261474609C58.1124267578125,77.5889826147461,60.8763167578125,80.3527926147461,64.2856467578125,80.3527926147461C67.6949767578125,80.3527926147461,70.4588267578125,77.5889826147461,70.4588267578125,74.17965261474609C70.4588267578125,70.77031261474609,67.6949767578125,68.0064926147461,64.2856467578125,68.0064926147461C60.8763167578125,68.0064926147461,58.1124267578125,70.77031261474609,58.1124267578125,74.17965261474609C58.1124267578125,74.17965261474609,58.1124267578125,74.17965261474609,58.1124267578125,74.17965261474609Z" fill="#FFBAB0" fill-opacity="1"/></g><g><path d="M64.2687120703125,83.04194466552734C59.3741420703125,83.04194466552734,55.4063720703125,79.07414466552734,55.4063720703125,74.17971466552734C55.4063720703125,69.28514466552734,59.3741420703125,65.31734466552734,64.2687120703125,65.31734466552734C69.1631720703125,65.31734466552734,73.1309720703125,69.28514466552734,73.1309720703125,74.17964466552735C73.1217720703125,79.07034466552734,69.1593720703125,83.03274466552735,64.2687120703125,83.04194466552734C64.2687120703125,83.04194466552734,64.2687120703125,83.04194466552734,64.2687120703125,83.04194466552734ZM64.2687120703125,70.71251466552735C62.4122620703125,70.75896466552734,60.9404020703125,72.29332466552734,60.9711620703125,74.15004466552735C61.0019220703125,76.00684466552734,62.5237720703125,77.49154466552734,64.3807020703125,77.47644466552734C66.2376720703125,77.46134466552735,67.7352720703125,75.95214466552734,67.73577207031249,74.09508466552734C67.6898720703125,72.21334466552734,66.1509720703125,70.71196466552735,64.2687120703125,70.71251466552735C64.2687120703125,70.71251466552735,64.2687120703125,70.71251466552735,64.2687120703125,70.71251466552735Z" fill="#783741" fill-opacity="1"/></g><g><path d="M66.75492950134277,38.40913833618164C66.76422950134278,39.77276833618164,65.66622950134277,40.88578833618164,64.30252950134278,40.89511833618164C62.93892950134278,40.90443833618164,61.82592950134277,39.80654833618164,61.81652950134277,38.44287833618164C61.80712950134277,37.07917833618164,62.905029501342774,35.96609726618164,64.26862950134277,35.95669785208164C65.63242950134277,35.94732895618164,66.74552950134277,37.04527833618164,66.75482950134278,38.409058336181644C66.75482950134278,38.409058336181644,66.75492950134277,38.40913833618164,66.75492950134277,38.40913833618164ZM102.50852950134278,74.17963833618164C102.50852950134278,75.54343833618164,101.40302950134277,76.64893833618164,100.03922950134277,76.64893833618164C98.67552950134278,76.64893833618164,97.57002950134277,75.54343833618164,97.57002950134277,74.17963833618164C97.57002950134277,72.81593833618163,98.67552950134278,71.71033833618165,100.03922950134277,71.71033833618165C100.69552950134278,71.70583833618164,101.32622950134278,71.96453833618165,101.79032950134277,72.42853833618165C102.25442950134277,72.89263833618165,102.51302950134277,73.52333833618164,102.50852950134278,74.17963833618164C102.50852950134278,74.17963833618164,102.50852950134278,74.17963833618164,102.50852950134278,74.17963833618164ZM66.75492950134277,109.93323833618165C66.75492950134277,111.29483833618164,65.65282950134278,112.39943833618165,64.29132950134277,112.40253833618164C62.92982950134277,112.40573833618164,61.822629501342774,111.30613833618165,61.816429501342775,109.94463833618164C61.810229501342775,108.58313833618163,62.90712950134277,107.47343833618164,64.26862950134277,107.46413833618163C65.63522950134276,107.46413833618163,66.74562950134278,108.56693833618164,66.75492950134277,109.93343833618164C66.75492950134277,109.93343833618164,66.75492950134277,109.93323833618165,66.75492950134277,109.93323833618165ZM30.98421950134277,74.17963833618164C30.98421950134277,75.17983833618163,30.380769501342773,76.08133833618163,29.456029501342773,76.46253833618164C28.531189501342773,76.84363833618164,27.467789501342775,76.62933833618163,26.762955501342773,75.91963833618163C26.058091101342775,75.20993833618164,25.851014501342775,74.14503833618164,26.238556501342774,73.22293833618164C26.626069501342773,72.30083833618164,27.531649501342773,71.70353833618164,28.531889501342775,71.71033833618165C29.185269501342773,71.71033833618165,29.811619501342772,71.97113833618164,30.271999501342773,72.43463833618165C30.732329501342775,72.89823833618163,30.988709501342775,73.52633833618164,30.98421950134277,74.17963833618164C30.98421950134277,74.17963833618164,30.98421950134277,74.17963833618164,30.98421950134277,74.17963833618164Z" fill="#783741" fill-opacity="1"/></g></g></svg>