<svg xmlns="http://www.w3.org/2000/svg" xmlns:xlink="http://www.w3.org/1999/xlink" fill="none" version="1.1" width="26.755369186401367" height="21.622161865234375" viewBox="0 0 26.755369186401367 21.622161865234375"><g><path d="M3.3578,11.4666C3.3578,11.4666,12.1622,20.271,12.1622,20.271C12.1622,20.271,10.8111,21.6222,10.8111,21.6222C10.8111,21.6222,0,10.8111,0,10.8111C0,10.8111,10.8111,0,10.8111,0C10.8111,0,12.1622,1.35116,12.1622,1.35116C12.1622,1.35116,3.95789,9.55549,3.95789,9.55549C3.95789,9.55549,26.7554,9.55549,26.7554,9.55549C26.7554,9.55549,26.7554,11.4666,26.7554,11.4666C26.7554,11.4666,3.3578,11.4666,3.3578,11.4666C3.3578,11.4666,3.3578,11.4666,3.3578,11.4666Z" fill="#FFFFFF" fill-opacity="1"/></g></svg>
