<?xml version="1.0" standalone="no"?><!DOCTYPE svg PUBLIC "-//W3C//DTD SVG 1.1//EN" "http://www.w3.org/Graphics/SVG/1.1/DTD/svg11.dtd"><svg t="1670941166591" class="icon" viewBox="0 0 1024 1024" version="1.1" xmlns="http://www.w3.org/2000/svg" p-id="4182" xmlns:xlink="http://www.w3.org/1999/xlink" width="200" height="200"><path d="M846.2 959.6H178c-44.5 0-80.9-36.4-80.9-80.9V238.3c0-44.5 36.4-80.9 80.9-80.9h668.2c44.5 0 80.9 36.4 80.9 80.9v640.3c0 44.6-36.4 81-80.9 81z" fill="#F2F2F1" p-id="4183"></path><path d="M927.1 413.9h-830V238.3c0-44.5 36.4-80.9 80.9-80.9h668.2c44.5 0 80.9 36.4 80.9 80.9v175.6z" fill="#FF5F5F" p-id="4184"></path><path d="M387.3 779.3h73.5c20.2 1.1 30.9 10.1 31.9 27.2-1.1 18.1-10.7 27.2-28.7 27.2H326.6c-20.2 0-30.3-9-30.3-27.2-1.1-5.3 1.6-12.2 8-20.8 8.5-9.6 17-19.2 25.6-28.7 35.1-37.3 60.7-68.1 76.7-92.6 9.6-12.8 14.4-25.6 14.4-38.3-2.1-19.2-11.7-29.8-28.7-31.9-17 0-29.3 12.3-36.7 36.7-6.4 20.2-15.4 29.8-27.2 28.7-20.2 0-30.3-9.6-30.3-28.7 5.3-54.3 37.3-85.2 95.8-92.6 57.5 4.3 87.8 32.5 91 84.6 0 29.8-24 71.9-71.9 126.2-12.9 14.8-21.5 24.9-25.7 30.2zM548.6 792.1l102.2-193.3H547c-20.2 0-30.3-9.6-30.3-28.7 0-17 10.1-26.1 30.3-27.2h147c17 1.1 27.2 10.7 30.3 28.7 0 6.4-3.2 15.4-9.6 27.2l-100.6 206c-1.1 2.1-2.1 3.7-3.2 4.8-8.5 17-19.2 25-31.9 24-20.2 0-31.4-9-33.5-27.2 0-2.1 0.5-4.8 1.6-8-0.1-2.1 0.4-4.2 1.5-6.3z" fill="#694B4B" p-id="4185"></path><path d="M375.6 286.1m-75 0a75 75 0 1 0 150 0 75 75 0 1 0-150 0Z" fill="#F34C4E" p-id="4186"></path><path d="M327.1 157.5h97.1v161.9h-97.1z" fill="#F34C4E" p-id="4187"></path><path d="M334.6 286.1m-75 0a75 75 0 1 0 150 0 75 75 0 1 0-150 0Z" fill="#FFFFFF" p-id="4188"></path><path d="M727.3 286.1m-75 0a75 75 0 1 0 150 0 75 75 0 1 0-150 0Z" fill="#F34C4E" p-id="4189"></path><path d="M679.2 157.4h96.2v161.9h-96.2z" fill="#F34C4E" p-id="4190"></path><path d="M687.3 286.1m-75 0a75 75 0 1 0 150 0 75 75 0 1 0-150 0Z" fill="#FFFFFF" p-id="4191"></path><path d="M340.6 325.3c-26.7 0-48.5-21.8-48.5-48.5V252c0-26.7 21.8-48.5 48.5-48.5s48.5 21.8 48.5 48.5v24.8c0.1 26.7-21.8 48.5-48.5 48.5z" fill="#E5E4DD" p-id="4192"></path><path d="M334.6 319.3c-26.7 0-48.5-21.8-48.5-48.5V111.7c0-26.7 21.8-48.5 48.5-48.5s48.5 21.8 48.5 48.5v159.1c0.1 26.7-21.8 48.5-48.5 48.5z" fill="#FFF082" p-id="4193"></path><path d="M693.3 325.3c-26.5 0-48.1-21.6-48.1-48.1v-25.7c0-26.5 21.6-48.1 48.1-48.1s48.1 21.6 48.1 48.1v25.7c0 26.5-21.6 48.1-48.1 48.1z" fill="#E5E4DD" p-id="4194"></path><path d="M687.3 319.3c-26.5 0-48.1-21.6-48.1-48.1V111.3c0-26.5 21.6-48.1 48.1-48.1s48.1 21.6 48.1 48.1v159.9c0 26.5-21.6 48.1-48.1 48.1z" fill="#FFF082" p-id="4195"></path></svg>
