<svg xmlns="http://www.w3.org/2000/svg" xmlns:xlink="http://www.w3.org/1999/xlink" fill="none" version="1.1" width="29" height="29" viewBox="0 0 29 29"><g style="mix-blend-mode:passthrough"><g><path d="M0.9544685840155,9.599003515625C0.9544677734376231,14.534553515625,4.9555477734375,18.535653515625,9.8911177734375,18.535653515625C14.8266677734375,18.535653515625,18.8277677734375,14.534553515625,18.8277677734375,9.599003515625C18.8277677734375,4.663423515625,14.8266677734375,0.662352705051,9.8911177734375,0.6623535156251231C4.9555377734375,0.6623535156251231,0.9544669628595,4.663433515625,0.9544677734376231,9.599013515625C0.9544677734376231,9.599013515625,0.9544685840155,9.599003515625,0.9544685840155,9.599003515625Z" fill="#8CF6FB" fill-opacity="1"/></g><g><path d="M10.085388584015671,13.095954326203172C10.085388584015671,13.095954326203172,4.257118584015672,13.095954326203172,4.257118584015672,13.095954326203172C2.4309585840156718,13.095954326203172,0.9544685840156717,11.619454326203172,0.9544685840156717,9.793274326203171C0.9544685840156717,9.793274326203171,0.9544685840156717,3.9650043262031716,0.9544685840156717,3.9650043262031716C0.9544685840156717,2.1388443262031718,2.4309585840156718,0.6623543262031717,4.257148584015672,0.6623543262031717C4.257148584015672,0.6623543262031717,10.085418584015672,0.6623543262031717,10.085418584015672,0.6623543262031717C11.911568584015672,0.6623543262031717,13.388068584015672,2.1388443262031718,13.388068584015672,3.9650343262031718C13.388068584015672,3.9650343262031718,13.388068584015672,9.793304326203172,13.388068584015672,9.793304326203172C13.388068584015672,11.619454326203172,11.911568584015672,13.095954326203172,10.085388584015671,13.095954326203172C10.085388584015671,13.095954326203172,10.085388584015671,13.095954326203172,10.085388584015671,13.095954326203172ZM4.257148584015672,2.605104326203172C3.518898584015672,2.605104326203172,2.897218584015672,3.226784326203172,2.897218584015672,3.9650343262031718C2.897218584015672,3.9650343262031718,2.897218584015672,9.793304326203172,2.897218584015672,9.793304326203172C2.897218584015672,10.531534326203172,3.518898584015672,11.153154326203172,4.257148584015672,11.153154326203172C4.257148584015672,11.153154326203172,10.085418584015672,11.153154326203172,10.085418584015672,11.153154326203172C10.823658584015671,11.153154326203172,11.445368584015672,10.531524326203172,11.445368584015672,9.793274326203171C11.445368584015672,9.793274326203171,11.445368584015672,3.9650043262031716,11.445368584015672,3.9650043262031716C11.445268584015672,3.226784326203172,10.823648584015672,2.605104326203172,10.085388584015671,2.605104326203172C10.085388584015671,2.605104326203172,4.257118584015672,2.605104326203172,4.257118584015672,2.605104326203172C4.257118584015672,2.605104326203172,4.257148584015672,2.605104326203172,4.257148584015672,2.605104326203172ZM24.850268584015673,13.095954326203172C24.850268584015673,13.095954326203172,19.02206858401567,13.095954326203172,19.02206858401567,13.095954326203172C17.19586858401567,13.095954326203172,15.719368584015672,11.619454326203172,15.719368584015672,9.793274326203171C15.719368584015672,9.793274326203171,15.719368584015672,3.9650043262031716,15.719368584015672,3.9650043262031716C15.719368584015672,2.1388443262031718,17.19586858401567,0.6623543262031717,19.02206858401567,0.6623543262031717C19.02206858401567,0.6623543262031717,24.850368584015673,0.6623543262031717,24.850368584015673,0.6623543262031717C26.676468584015673,0.6623543262031717,28.15296858401567,2.1388443262031718,28.15296858401567,3.9650343262031718C28.15296858401567,3.9650343262031718,28.15296858401567,9.793304326203172,28.15296858401567,9.793304326203172C28.15296858401567,11.619454326203172,26.676468584015673,13.095954326203172,24.850268584015673,13.095954326203172C24.850268584015673,13.095954326203172,24.850268584015673,13.095954326203172,24.850268584015673,13.095954326203172ZM19.02206858401567,2.605104326203172C18.28376858401567,2.605104326203172,17.66216858401567,3.226784326203172,17.66216858401567,3.9650343262031718C17.66216858401567,3.9650343262031718,17.66216858401567,9.793304326203172,17.66216858401567,9.793304326203172C17.66216858401567,10.531544326203171,18.28386858401567,11.153254326203172,19.02206858401567,11.153254326203172C19.02206858401567,11.153254326203172,24.850368584015673,11.153254326203172,24.850368584015673,11.153254326203172C25.588568584015672,11.153254326203172,26.210268584015672,10.531544326203171,26.210268584015672,9.793304326203172C26.210268584015672,9.793304326203172,26.210268584015672,3.9650343262031718,26.210268584015672,3.9650343262031718C26.210268584015672,3.226784326203172,25.588568584015672,2.605104326203172,24.850268584015673,2.605104326203172C24.850268584015673,2.605104326203172,19.02206858401567,2.605104326203172,19.02206858401567,2.605104326203172C19.02206858401567,2.605104326203172,19.02206858401567,2.605104326203172,19.02206858401567,2.605104326203172ZM10.085388584015671,27.86085432620317C10.085388584015671,27.86085432620317,4.257118584015672,27.86085432620317,4.257118584015672,27.86085432620317C2.4309585840156718,27.86085432620317,0.9544685840156717,26.384354326203173,0.9544685840156717,24.558154326203173C0.9544685840156717,24.558154326203173,0.9544685840156717,18.72995432620317,0.9544685840156717,18.72995432620317C0.9544685840156717,16.90375432620317,2.4309585840156718,15.427254326203172,4.257148584015672,15.427254326203172C4.257148584015672,15.427254326203172,10.085418584015672,15.427254326203172,10.085418584015672,15.427254326203172C11.911568584015672,15.427254326203172,13.388068584015672,16.90375432620317,13.388068584015672,18.72995432620317C13.388068584015672,18.72995432620317,13.388068584015672,24.558254326203173,13.388068584015672,24.558254326203173C13.388068584015672,26.384354326203173,11.911568584015672,27.86085432620317,10.085418584015672,27.86085432620317C10.085418584015672,27.86085432620317,10.085388584015671,27.86085432620317,10.085388584015671,27.86085432620317ZM4.257118584015672,17.37005432620317C3.518898584015672,17.37005432620317,2.897218584015672,17.99165432620317,2.897218584015672,18.72995432620317C2.897218584015672,18.72995432620317,2.897218584015672,24.558254326203173,2.897218584015672,24.558254326203173C2.897218584015672,25.296454326203172,3.518898584015672,25.918154326203172,4.257148584015672,25.918154326203172C4.257148584015672,25.918154326203172,10.085418584015672,25.918154326203172,10.085418584015672,25.918154326203172C10.823658584015671,25.918154326203172,11.445368584015672,25.296454326203172,11.445368584015672,24.558154326203173C11.445368584015672,24.558154326203173,11.445368584015672,18.72995432620317,11.445368584015672,18.72995432620317C11.445368584015672,17.99165432620317,10.823658584015671,17.36995432620317,10.085418584015672,17.36995432620317C10.085418584015672,17.36995432620317,4.257148584015672,17.36995432620317,4.257148584015672,17.36995432620317C4.257148584015672,17.36995432620317,4.257118584015672,17.37005432620317,4.257118584015672,17.37005432620317Z" fill="#3C2DCB" fill-opacity="1"/></g><g><path d="M21.936190869140624,27.860876611328123C18.517000869140624,27.860876611328123,15.719390869140625,25.063326611328122,15.719390869140625,21.644076611328124C15.719390869140625,18.224886611328124,18.517000869140624,15.427276611328125,21.936190869140624,15.427276611328125C25.355440869140622,15.427276611328125,28.152990869140623,18.224886611328124,28.152990869140623,21.644076611328124C28.152990869140623,25.063326611328122,25.355440869140622,27.860876611328123,21.936190869140624,27.860876611328123C21.936190869140624,27.860876611328123,21.936190869140624,27.860876611328123,21.936190869140624,27.860876611328123ZM21.936190869140624,17.370026611328125C19.566010869140626,17.370026611328125,17.662140869140625,19.273896611328126,17.662140869140625,21.644076611328124C17.662140869140625,24.014186611328125,19.566010869140626,25.918076611328125,21.936190869140624,25.918076611328125C24.306300869140625,25.918076611328125,26.210190869140625,24.014186611328125,26.210190869140625,21.644076611328124C26.210190869140625,19.273896611328126,24.306300869140625,17.370026611328125,21.936190869140624,17.370026611328125C21.936190869140624,17.370026611328125,21.936190869140624,17.370026611328125,21.936190869140624,17.370026611328125Z" fill="#D098FF" fill-opacity="1"/></g></g></svg>
