<svg xmlns="http://www.w3.org/2000/svg" xmlns:xlink="http://www.w3.org/1999/xlink" fill="none" version="1.1" width="33" height="28" viewBox="0 0 33 28"><g style="mix-blend-mode:passthrough"><g><path d="M2.051654815673828,21.896116647338868C2.051654815673828,21.896116647338868,6.135554815673828,21.896116647338868,6.135554815673828,21.896116647338868C6.135554815673828,21.896116647338868,6.135554815673828,27.005416647338865,6.135554815673828,27.005416647338865C6.135554815673828,27.005416647338865,2.051654815673828,27.005416647338865,2.051654815673828,27.005416647338865C2.051654815673828,27.005416647338865,2.051654815673828,21.896116647338868,2.051654815673828,21.896116647338868C2.051654815673828,21.896116647338868,2.051654815673828,21.896116647338868,2.051654815673828,21.896116647338868ZM10.219464815673827,13.728326647338868C10.219464815673827,13.728326647338868,14.303354815673828,13.728326647338868,14.303354815673828,13.728326647338868C14.303354815673828,13.728326647338868,14.303354815673828,27.005416647338865,14.303354815673828,27.005416647338865C14.303354815673828,27.005416647338865,10.219464815673827,27.005416647338865,10.219464815673827,27.005416647338865C10.219464815673827,27.005416647338865,10.219464815673827,13.728326647338868,10.219464815673827,13.728326647338868C10.219464815673827,13.728326647338868,10.219464815673827,13.728326647338868,10.219464815673827,13.728326647338868ZM17.379554815673828,17.812226647338868C17.379554815673828,17.812226647338868,21.463454815673828,17.812226647338868,21.463454815673828,17.812226647338868C21.463454815673828,17.812226647338868,21.463454815673828,27.005416647338865,21.463454815673828,27.005416647338865C21.463454815673828,27.005416647338865,17.379554815673828,27.005416647338865,17.379554815673828,27.005416647338865C17.379554815673828,27.005416647338865,17.379554815673828,17.812226647338868,17.379554815673828,17.812226647338868C17.379554815673828,17.812226647338868,17.379554815673828,17.812226647338868,17.379554815673828,17.812226647338868ZM26.555054815673827,8.619016647338867C26.555054815673827,8.619016647338867,30.638954815673827,8.619016647338867,30.638954815673827,8.619016647338867C30.638954815673827,8.619016647338867,30.638954815673827,25.980016647338868,30.638954815673827,25.980016647338868C30.638954815673827,25.980016647338868,26.555054815673827,25.980016647338868,26.555054815673827,25.980016647338868C26.555054815673827,25.980016647338868,26.555054815673827,8.619016647338867,26.555054815673827,8.619016647338867C26.555054815673827,8.619016647338867,26.555054815673827,8.619016647338867,26.555054815673827,8.619016647338867Z" fill="#CAE4FF" fill-opacity="1"/></g><g><path d="M4.136938649024963,18.4583C5.321448649024964,18.4583,6.293808649024963,17.4859,6.2761286490249635,16.3014C6.2761286490249635,16.0185,6.223088649024963,15.7533,6.117018649024963,15.4881C6.117018649024963,15.4881,11.226318649024963,10.37883,11.226318649024963,10.37883C11.491508649024963,10.48489,11.756688649024964,10.53793,12.039548649024963,10.53793C12.552248649024964,10.53793,13.029548649024964,10.34347,13.418548649024963,10.00757C13.418548649024963,10.00757,17.838348649024965,12.2175,17.838348649024965,12.2175C17.838348649024965,12.2705,17.802948649024962,12.3059,17.802948649024962,12.3589C17.802948649024962,13.5434,18.757648649024965,14.5158,19.942148649024965,14.5158C21.126648649024965,14.5158,22.099048649024965,13.5611,22.099048649024965,12.3766C22.099048649024965,12.0937,22.046048649024964,11.8109,21.939948649024963,11.5457C21.939948649024963,11.5457,27.084548649024963,5.11041,27.084548649024963,5.11041C28.180648649024963,5.5524,29.435948649024965,5.02202,29.877848649024962,3.9259C30.196148649024963,3.13035,30.019348649024963,2.21102,29.400548649024962,1.6099299999999999C28.551948649024965,0.79669,27.208348649024963,0.79669,26.359748649024965,1.6099299999999999C25.740948649024965,2.22871,25.564148649024965,3.14802,25.900048649024964,3.96127C25.900048649024964,3.96127,20.755448649024963,10.3965,20.755448649024963,10.3965C20.030548649024965,10.13132,19.199648649024965,10.25508,18.598548649024963,10.76777C18.598548649024963,10.76777,14.161048649024963,8.557870000000001,14.161048649024963,8.557870000000001C14.161048649024963,8.504819999999999,14.196448649024964,8.469470000000001,14.196448649024964,8.41644C14.196448649024964,7.85069,13.966548649024963,7.30264,13.577648649024963,6.89602C12.729048649024964,6.08276,11.385428649024963,6.08276,10.536828649024963,6.89602C9.935738649024962,7.5148,9.741258649024964,8.43413,10.077158649024963,9.22969C10.077158649024963,9.22969,4.950188649024963,14.3567,4.950188649024963,14.3567C4.154618649024963,14.0384,3.2529786490249633,14.2329,2.6165346490249632,14.8163C1.7679256490249633,15.6472,1.7679256490249633,17.0085,2.5988426490249634,17.8571C3.0231486490249635,18.2461,3.5712086490249635,18.4759,4.136948649024964,18.4583C4.136948649024964,18.4583,4.136938649024963,18.4583,4.136938649024963,18.4583ZM27.544248649024965,2.77676C27.738748649024963,2.59997,28.056948649024964,2.59997,28.233748649024964,2.81212C28.410548649024964,3.00658,28.410548649024964,3.28946,28.233748649024964,3.48393C28.039248649024962,3.66072,27.738748649024963,3.66072,27.544248649024965,3.48393C27.349748649024963,3.27177,27.349748649024963,2.97124,27.544248649024965,2.77676C27.544248649024965,2.77676,27.544248649024965,2.77676,27.544248649024965,2.77676ZM19.623948649024964,12.0053C19.818448649024962,11.8109,20.118948649024965,11.8109,20.313448649024963,12.0053C20.507948649024964,12.1998,20.507948649024964,12.5003,20.313448649024963,12.6948C20.118948649024965,12.8716,19.818448649024962,12.8716,19.623948649024964,12.6948C19.429448649024962,12.5003,19.429448649024962,12.1998,19.623948649024964,12.0053C19.623948649024964,12.0053,19.623948649024964,12.0053,19.623948649024964,12.0053ZM11.703658649024963,8.04516C11.898118649024964,7.85069,12.198648649024964,7.85069,12.393148649024964,8.04516C12.587648649024963,8.23964,12.587648649024963,8.540189999999999,12.393148649024964,8.73465C12.198648649024964,8.91145,11.898118649024964,8.91145,11.703658649024963,8.73465C11.544548649024964,8.557870000000001,11.544548649024964,8.23964,11.703658649024963,8.04516C11.703658649024963,8.04516,11.703658649024963,8.04516,11.703658649024963,8.04516ZM3.8010386490249637,15.9655C3.9954986490249635,15.771,4.296058649024964,15.771,4.490528649024963,15.9655C4.684988649024963,16.1599,4.684988649024963,16.4782,4.490528649024963,16.655C4.296058649024964,16.8318,3.9954986490249635,16.8318,3.8010386490249637,16.655C3.6419286490249636,16.4782,3.6772786490249634,16.177599999999998,3.8010386490249637,15.9655C3.8010386490249637,15.9655,3.8010386490249637,15.9655,3.8010386490249637,15.9655Z" fill="#0972E7" fill-opacity="1"/></g><g><path d="M31.1862,26.042623410034178C31.1862,26.042623410034178,30.6911,26.042623410034178,30.6911,26.042623410034178C30.6911,26.042623410034178,30.6911,8.39875641003418,30.6911,8.39875641003418C30.6911,7.93910041003418,30.3199,7.56782341003418,29.8602,7.56782341003418C29.8602,7.56782341003418,25.9001,7.56782341003418,25.9001,7.56782341003418C25.4404,7.56782341003418,25.0691,7.93910041003418,25.0691,8.39875641003418C25.0691,8.39875641003418,25.0691,26.042623410034178,25.0691,26.042623410034178C25.0691,26.042623410034178,22.7709,26.042623410034178,22.7709,26.042623410034178C22.7709,26.042623410034178,22.7709,17.62732341003418,22.7709,17.62732341003418C22.7709,17.16764341003418,22.3996,16.79640341003418,21.9399,16.79640341003418C21.9399,16.79640341003418,17.9798,16.79640341003418,17.9798,16.79640341003418C17.5201,16.79640341003418,17.1489,17.16764341003418,17.1489,17.62732341003418C17.1489,17.62732341003418,17.1489,26.042623410034178,17.1489,26.042623410034178C17.1489,26.042623410034178,14.8682,26.042623410034178,14.8682,26.042623410034178C14.8682,26.042623410034178,14.8682,13.68485341003418,14.8682,13.68485341003418C14.8682,13.22517341003418,14.497,12.85392341003418,14.0373,12.85392341003418C14.0373,12.85392341003418,10.0772,12.85392341003418,10.0772,12.85392341003418C9.6175,12.85392341003418,9.24624,13.22517341003418,9.24624,13.68485341003418C9.24624,13.68485341003418,9.24624,26.042623410034178,9.24624,26.042623410034178C9.24624,26.042623410034178,6.94794,26.042623410034178,6.94794,26.042623410034178C6.94794,26.042623410034178,6.94794,21.58752341003418,6.94794,21.58752341003418C6.94794,21.127823410034182,6.57668,20.75652341003418,6.11702,20.75652341003418C6.11702,20.75652341003418,2.15687,20.75652341003418,2.15687,20.75652341003418C1.69721,20.75652341003418,1.32594,21.127823410034182,1.32594,21.58752341003418C1.32594,21.58752341003418,1.32594,26.042623410034178,1.32594,26.042623410034178C1.32594,26.042623410034178,0.830925,26.042623410034178,0.830925,26.042623410034178C0.371265,26.042623410034178,0,26.41392341003418,0,26.87352341003418C0,27.33322341003418,0.371265,27.70452341003418,0.830925,27.70452341003418C0.830925,27.70452341003418,31.1685,27.70452341003418,31.1685,27.70452341003418C31.6282,27.70452341003418,31.9994,27.33322341003418,31.9994,26.87352341003418C32.0171,26.41392341003418,31.6458,26.042623410034178,31.1862,26.042623410034178C31.1862,26.042623410034178,31.1862,26.042623410034178,31.1862,26.042623410034178ZM2.98779,26.042623410034178C2.98779,26.042623410034178,2.98779,22.41842341003418,2.98779,22.41842341003418C2.98779,22.41842341003418,5.28609,22.41842341003418,5.28609,22.41842341003418C5.28609,22.41842341003418,5.28609,26.042623410034178,5.28609,26.042623410034178C5.28609,26.042623410034178,2.98779,26.042623410034178,2.98779,26.042623410034178C2.98779,26.042623410034178,2.98779,26.042623410034178,2.98779,26.042623410034178ZM10.9081,26.042623410034178C10.9081,26.042623410034178,10.9081,14.49809341003418,10.9081,14.49809341003418C10.9081,14.49809341003418,13.2064,14.49809341003418,13.2064,14.49809341003418C13.2064,14.49809341003418,13.2064,26.042623410034178,13.2064,26.042623410034178C13.2064,26.042623410034178,10.9081,26.042623410034178,10.9081,26.042623410034178C10.9081,26.042623410034178,10.9081,26.042623410034178,10.9081,26.042623410034178ZM18.8284,26.042623410034178C18.8284,26.042623410034178,18.8284,18.45822341003418,18.8284,18.45822341003418C18.8284,18.45822341003418,21.1267,18.45822341003418,21.1267,18.45822341003418C21.1267,18.45822341003418,21.1267,26.042623410034178,21.1267,26.042623410034178C21.1267,26.042623410034178,18.8284,26.042623410034178,18.8284,26.042623410034178C18.8284,26.042623410034178,18.8284,26.042623410034178,18.8284,26.042623410034178ZM26.7487,26.042623410034178C26.7487,26.042623410034178,26.7487,9.22969341003418,26.7487,9.22969341003418C26.7487,9.22969341003418,29.047,9.22969341003418,29.047,9.22969341003418C29.047,9.22969341003418,29.047,26.042623410034178,29.047,26.042623410034178C29.047,26.042623410034178,26.7487,26.042623410034178,26.7487,26.042623410034178C26.7487,26.042623410034178,26.7487,26.042623410034178,26.7487,26.042623410034178Z" fill="#0972E7" fill-opacity="1"/></g></g></svg>
