<svg xmlns="http://www.w3.org/2000/svg" xmlns:xlink="http://www.w3.org/1999/xlink" fill="none" version="1.1" width="36" height="35.99998474121094" viewBox="0 0 36 35.99998474121094"><g style="mix-blend-mode:passthrough"><g><path d="" fill="#909090" fill-opacity="0"/></g><g><path d="M4.89078745300293,15.270294189453125C4.89078745300293,15.270294189453125,31.10921745300293,15.270294189453125,31.10921745300293,15.270294189453125C32.080317453002934,15.270294189453125,32.56581745300293,15.755829189453125,32.56581745300293,16.726864189453124C32.56581745300293,16.726864189453124,32.56581745300293,31.292694189453126,32.56581745300293,31.292694189453126C32.56581745300293,32.263694189453126,32.080317453002934,32.749294189453124,31.10921745300293,32.749294189453124C31.10921745300293,32.749294189453124,4.89078745300293,32.749294189453124,4.89078745300293,32.749294189453124C3.9197364530029297,32.749294189453124,3.4342174530029297,32.263694189453126,3.4342174530029297,31.292694189453126C3.4342174530029297,31.292694189453126,3.4342174530029297,16.726864189453124,3.4342174530029297,16.726864189453124C3.4342174530029297,15.755829189453125,3.9197364530029297,15.270294189453125,4.89078745300293,15.270294189453125C4.89078745300293,15.270294189453125,4.89078745300293,15.270294189453125,4.89078745300293,15.270294189453125Z" fill="#4A90E2" fill-opacity="0.6000000238418579"/></g><g><path d="M18.438451721496584,2.6621166154785154C18.438451721496584,2.6621166154785154,27.351231721496582,12.847999615478516,27.351231721496582,12.847999615478516C27.501531721496583,13.020199615478516,27.53733172149658,13.264499615478515,27.442531721496582,13.472599615478515C27.347731721496583,13.680599615478515,27.14003172149658,13.813999615478515,26.911431721496584,13.813699615478516C26.911431721496584,13.813699615478516,9.088674721496583,13.813699615478516,9.088674721496583,13.813699615478516C8.860036721496583,13.813999615478515,8.652334721496581,13.680599615478515,8.557561921496582,13.472599615478515C8.462774321496582,13.264499615478515,8.498464641496582,13.020199615478516,8.648794721496582,12.847999615478516C8.648794721496582,12.847999615478516,17.56304172149658,2.6621166154785154,17.56304172149658,2.6621166154785154C17.673681721496582,2.535705615478516,17.833481721496582,2.4631996154785156,18.001471721496582,2.4631996154785156C18.169451721496582,2.4631996154785156,18.329271721496582,2.535705615478516,18.439911721496582,2.6621166154785154C18.439911721496582,2.6621166154785154,18.438451721496584,2.6621166154785154,18.438451721496584,2.6621166154785154Z" fill="#4A90E2" fill-opacity="1"/></g><g><path d="M13.630270004272461,13.813690185546875C13.630270004272461,13.813690185546875,22.36977000427246,13.813690185546875,22.36977000427246,13.813690185546875C22.36977000427246,13.813690185546875,22.36977000427246,25.466290185546875,22.36977000427246,25.466290185546875C22.36977000427246,25.466290185546875,13.630270004272461,25.466290185546875,13.630270004272461,25.466290185546875C13.630270004272461,25.466290185546875,13.630270004272461,13.813690185546875,13.630270004272461,13.813690185546875C13.630270004272461,13.813690185546875,13.630270004272461,13.813690185546875,13.630270004272461,13.813690185546875ZM13.630270004272461,26.922990185546873C13.630270004272461,26.922990185546873,22.36977000427246,26.922990185546873,22.36977000427246,26.922990185546873C22.36977000427246,26.922990185546873,22.36977000427246,28.379490185546874,22.36977000427246,28.379490185546874C22.36977000427246,28.379490185546874,13.630270004272461,28.379490185546874,13.630270004272461,28.379490185546874C13.630270004272461,28.379490185546874,13.630270004272461,26.922990185546873,13.630270004272461,26.922990185546873C13.630270004272461,26.922990185546873,13.630270004272461,26.922990185546873,13.630270004272461,26.922990185546873Z" fill="#4A90E2" fill-opacity="1"/></g><g><path d="M18.291372299194336,22.84447841796875C18.291372299194336,23.64892841796875,18.943472299194337,24.30102841796875,19.747912299194336,24.30102841796875C20.552422299194337,24.30102841796875,21.204582299194335,23.64892841796875,21.204582299194335,22.84447841796875C21.204582299194335,22.04003941796875,20.552422299194337,21.38787841796875,19.747912299194336,21.38787841796875C18.943472299194337,21.38787841796875,18.291372299194336,22.04003941796875,18.291372299194336,22.84447841796875C18.291372299194336,22.84447841796875,18.291372299194336,22.84447841796875,18.291372299194336,22.84447841796875Z" fill="#E02020" fill-opacity="1"/></g></g></svg>
