<svg xmlns="http://www.w3.org/2000/svg" xmlns:xlink="http://www.w3.org/1999/xlink" fill="none" version="1.1" width="26.755386352539062" height="18.545623779296875" viewBox="0 0 26.755386352539062 18.545623779296875"><g><path d="M1.16014,2.32027C1.16014,2.32027,25.5953,2.32027,25.5953,2.32027C26.2336,2.32027,26.7554,1.79852,26.7554,1.16016C26.7554,0.521805,26.2392,0,25.5953,0C25.5953,0,1.16014,0,1.16014,0C0.521774,0,0,0.521805,0,1.16014C0,1.79852,0.521805,2.32027,1.16011,2.32027C1.16011,2.32027,1.16014,2.32027,1.16014,2.32027ZM25.5953,8.11542C25.5953,8.11542,1.16017,8.11542,1.16017,8.11542C0.521805,8.11542,0.0000305176,8.63724,0.0000305176,9.27559C0.0000305176,9.91394,0.521835,10.4357,1.16014,10.4357C1.16014,10.4357,25.5953,10.4357,25.5953,10.4357C26.2336,10.4357,26.7554,9.91389,26.7554,9.27559C26.7554,8.63719,26.2336,8.11545,25.5953,8.11545C25.5953,8.11545,25.5953,8.11542,25.5953,8.11542ZM25.5953,16.2253C25.5953,16.2253,1.16017,16.2253,1.16017,16.2253C0.521805,16.2253,0.0000305176,16.7415,0.0000305176,17.3854C0.0000305176,18.0293,0.521835,18.5456,1.16014,18.5456C1.16014,18.5456,25.5953,18.5456,25.5953,18.5456C26.2336,18.5456,26.7554,18.0293,26.7554,17.3855C26.7554,16.7416,26.2336,16.2253,25.5953,16.2253C25.5953,16.2253,25.5953,16.2253,25.5953,16.2253Z" fill="#FFFFFF" fill-opacity="1"/></g></svg>
