<svg xmlns="http://www.w3.org/2000/svg" xmlns:xlink="http://www.w3.org/1999/xlink" fill="none" version="1.1" width="34" height="35" viewBox="0 0 34 35"><g style="mix-blend-mode:passthrough"><g><path d="M13.827453613303126,23.511929072265623C13.827453613303126,28.492349072265625,17.864873095703125,32.52984907226562,22.845303095703123,32.52984907226562C27.825723095703125,32.52984907226562,31.863223095703123,28.492349072265625,31.863223095703123,23.511929072265623C31.863223095703123,18.531499072265625,27.825723095703125,14.494079589865626,22.845303095703123,14.494049072265625C17.864873095703125,14.494049072265625,13.827453613303126,18.531499072265625,13.827423095703125,23.511929072265623C13.827423095703125,23.511929072265623,13.827453613303126,23.511929072265623,13.827453613303126,23.511929072265623Z" fill="#EEFAF0" fill-opacity="1"/></g><g><path d="M32.1638,27.7202259765625C32.1638,27.7202259765625,30.0596,27.7202259765625,30.0596,27.7202259765625C30.0596,27.7202259765625,30.0596,15.6926259765625,30.0596,15.6926259765625C30.0596,8.9781059765625,24.987,3.3907759765625,18.4866,2.5716559765625C18.4866,2.5716559765625,18.4866,2.3198959765625,18.4866,2.3198959765625C18.4866,1.4105989765625,17.7427,0.6666259765625,16.8334,0.6666259765625C15.9241,0.6666259765625,15.1801,1.4105989765625,15.1801,2.3198959765625C15.1801,2.3198959765625,15.1801,2.5716559765625,15.1801,2.5716559765625C8.67971,3.3907759765625,3.60715,8.9781059765625,3.60715,15.6926259765625C3.60715,15.6926259765625,3.60715,27.7202259765625,3.60715,27.7202259765625C3.60715,27.7202259765625,1.50298,27.7202259765625,1.50298,27.7202259765625C0.676338,27.7202259765625,0,28.3966259765625,0,29.2232259765625C0,30.0499259765625,0.676338,30.7262259765625,1.50298,30.7262259765625C1.50298,30.7262259765625,13.0797,30.7262259765625,13.0797,30.7262259765625C13.1586,32.7289259765625,14.8119,34.3333259765625,16.8334,34.3333259765625C18.8549,34.3333259765625,20.5082,32.7289259765625,20.5871,30.7262259765625C20.5871,30.7262259765625,32.1638,30.7262259765625,32.1638,30.7262259765625C32.9904,30.7262259765625,33.6667,30.0499259765625,33.6667,29.2232259765625C33.6667,28.3966259765625,32.9904,27.7202259765625,32.1638,27.7202259765625C32.1638,27.7202259765625,32.1638,27.7202259765625,32.1638,27.7202259765625ZM16.8334,31.9286259765625C16.1382,31.9286259765625,15.5634,31.4025259765625,15.4882,30.7262259765625C15.4882,30.7262259765625,18.1748,30.7262259765625,18.1748,30.7262259765625C18.1034,31.4025259765625,17.5285,31.9286259765625,16.8334,31.9286259765625C16.8334,31.9286259765625,16.8334,31.9286259765625,16.8334,31.9286259765625ZM27.0536,27.7165259765625C27.0536,27.7165259765625,6.61311,27.7165259765625,6.61311,27.7165259765625C6.61311,27.7165259765625,6.61311,15.6926259765625,6.61311,15.6926259765625C6.61311,14.3212259765625,6.88365,12.9873259765625,7.41721,11.7323259765625C7.93573,10.5148959765625,8.67595,9.4214859765625,9.61907,8.4783659765625C10.5622,7.5352459765625,11.6556,6.7950259765625,12.873,6.2764959765625C14.128,5.7429459765625,15.4619,5.4724059765625,16.8334,5.4724059765625C18.2048,5.4724059765625,19.5387,5.7429459765625,20.7937,6.2764959765625C22.0111,6.7950259765625,23.1046,7.5352459765625,24.0477,8.4783659765625C24.9908,9.4214859765625,25.731,10.5148959765625,26.2495,11.7323259765625C26.7831,12.9873259765625,27.0536,14.3212259765625,27.0536,15.6926259765625C27.0536,15.6926259765625,27.0536,27.7165259765625,27.0536,27.7165259765625C27.0536,27.7165259765625,27.0536,27.7165259765625,27.0536,27.7165259765625Z" fill="#1CC6A1" fill-opacity="1"/></g><g><path d="M23.145872890625,15.395843505859375C22.401916890625,15.395843505859375,21.793212890625,16.004547505859374,21.793212890625,16.748533505859374C21.793212890625,16.748533505859374,21.793212890625,23.061063505859373,21.793212890625,23.061063505859373C21.793212890625,23.805023505859374,22.401916890625,24.413723505859373,23.145872890625,24.413723505859373C23.889892890625,24.413723505859373,24.498592890624998,23.805023505859374,24.498592890624998,23.061063505859373C24.498592890624998,23.061063505859373,24.498592890624998,16.748533505859374,24.498592890624998,16.748533505859374C24.498592890624998,16.004547505859374,23.889892890625,15.395843505859375,23.145872890625,15.395843505859375C23.145872890625,15.395843505859375,23.145872890625,15.395843505859375,23.145872890625,15.395843505859375Z" fill="#08B28A" fill-opacity="1"/></g></g></svg>
